STARTFONT 2.1
COMMENT
COMMENT Converted from OpenType font "uvnbaisau_regular.ttf" by "otf2bdf 3.0".
COMMENT
FONT -FreeType-UVN Bai Sau-Bold-R-Normal--25-180-100-100-P-124-ISO10646-1
SIZE 18 100 100
FONTBOUNDINGBOX 35 35 -4 -7
STARTPROPERTIES 19
FOUNDRY "FreeType"
FAMILY_NAME "UVN Bai Sau"
WEIGHT_NAME "Bold"
SLANT "R"
SETWIDTH_NAME "Normal"
ADD_STYLE_NAME ""
PIXEL_SIZE 25
POINT_SIZE 180
RESOLUTION_X 100
RESOLUTION_Y 100
SPACING "P"
AVERAGE_WIDTH 124
CHARSET_REGISTRY "ISO10646"
CHARSET_ENCODING "1"
FONT_ASCENT 28
FONT_DESCENT 6
COPYRIGHT "(c) Copyright 2001 by Tom Truong. All Rights Reserved"
_OTF_FONTFILE "uvnbaisau_regular.ttf"
_OTF_PSNAME "UVNBaiSauBold"
ENDPROPERTIES
CHARS 383
STARTCHAR 0020
ENCODING 32
SWIDTH 280 0
DWIDTH 7 0
BBX 0 0 0 0
BITMAP
ENDCHAR
STARTCHAR 0021
ENCODING 33
SWIDTH 320 0
DWIDTH 8 0
BBX 5 17 2 0
BITMAP
F0
F0
F0
F0
F0
F0
F0
F0
F0
F0
F0
00
60
F0
F8
F0
F0
ENDCHAR
STARTCHAR 0022
ENCODING 34
SWIDTH 320 0
DWIDTH 8 0
BBX 7 7 1 11
BITMAP
EE
EE
EE
EE
EE
EE
EE
ENDCHAR
STARTCHAR 0023
ENCODING 35
SWIDTH 760 0
DWIDTH 19 0
BBX 18 18 1 0
BITMAP
01C700
01C700
03CF00
038E00
038E00
3FFFC0
3FFF80
7FFF80
0E3800
0E3800
0E3800
FFFF00
FFFE00
1C7000
38E000
38E000
79E000
71C000
ENDCHAR
STARTCHAR 0024
ENCODING 36
SWIDTH 560 0
DWIDTH 14 0
BBX 9 20 3 -1
BITMAP
1C00
1C00
1F00
7F00
FF00
FF00
F000
F800
FC00
7F00
1F80
0F80
0780
0F80
FF80
FF80
FE00
1C00
1C00
1C00
ENDCHAR
STARTCHAR 0025
ENCODING 37
SWIDTH 840 0
DWIDTH 21 0
BBX 20 17 1 0
BITMAP
3E0700
7F0600
F78E00
E38C00
E39C00
E7B800
7F3000
7E7000
08E7C0
00CFE0
01DFF0
019C70
039C70
071C70
061FF0
0E0FE0
1C07C0
ENDCHAR
STARTCHAR 0026
ENCODING 38
SWIDTH 760 0
DWIDTH 19 0
BBX 18 17 1 0
BITMAP
3FF000
3FF000
3FF000
3E0000
1F0200
3F8F00
7FCF00
7FCF80
FBE780
F9F780
F8FF80
F87F00
7C7F00
7FFE00
3FFF00
1FFF80
0FFFC0
ENDCHAR
STARTCHAR 0027
ENCODING 39
SWIDTH 160 0
DWIDTH 4 0
BBX 3 7 1 11
BITMAP
E0
E0
E0
E0
E0
E0
E0
ENDCHAR
STARTCHAR 0028
ENCODING 40
SWIDTH 360 0
DWIDTH 9 0
BBX 7 24 2 -6
BITMAP
04
0E
1E
3C
38
78
70
F0
E0
E0
E0
E0
E0
E0
E0
E0
F0
70
78
38
3C
1E
0E
04
ENDCHAR
STARTCHAR 0029
ENCODING 41
SWIDTH 360 0
DWIDTH 9 0
BBX 7 24 1 -6
BITMAP
40
E0
F0
70
78
3C
1C
1C
1E
0E
0E
0E
0E
0E
0E
0E
1C
1C
3C
38
78
F0
E0
40
ENDCHAR
STARTCHAR 002A
ENCODING 42
SWIDTH 480 0
DWIDTH 12 0
BBX 9 9 2 9
BITMAP
1C00
1800
DB00
FF80
3E00
FF00
FF00
5B00
1C00
ENDCHAR
STARTCHAR 002B
ENCODING 43
SWIDTH 800 0
DWIDTH 20 0
BBX 15 15 3 0
BITMAP
0380
0380
0380
0380
0380
0380
FFFE
FFFE
FFFE
0380
0380
0380
0380
0380
0380
ENDCHAR
STARTCHAR 002C
ENCODING 44
SWIDTH 280 0
DWIDTH 7 0
BBX 6 8 0 -4
BITMAP
3C
3C
78
78
78
70
70
E0
ENDCHAR
STARTCHAR 002D
ENCODING 45
SWIDTH 320 0
DWIDTH 8 0
BBX 6 3 1 5
BITMAP
FC
FC
FC
ENDCHAR
STARTCHAR 002E
ENCODING 46
SWIDTH 280 0
DWIDTH 7 0
BBX 5 5 1 0
BITMAP
20
F8
F8
F8
70
ENDCHAR
STARTCHAR 002F
ENCODING 47
SWIDTH 240 0
DWIDTH 6 0
BBX 9 20 -1 -2
BITMAP
0380
0300
0300
0700
0600
0600
0E00
0C00
0C00
0C00
1800
1800
1800
3800
3000
3000
7000
6000
6000
E000
ENDCHAR
STARTCHAR 0030
ENCODING 48
SWIDTH 560 0
DWIDTH 14 0
BBX 12 18 1 0
BITMAP
0F00
3FC0
7FE0
FFF0
F9F0
F0F0
F0F0
F0F0
F0F0
F0F0
F0F0
F0F0
F0F0
F0F0
FFF0
7FF0
7FE0
1F80
ENDCHAR
STARTCHAR 0031
ENCODING 49
SWIDTH 560 0
DWIDTH 14 0
BBX 7 17 3 0
BITMAP
FE
FE
FE
1E
1E
1E
1E
1E
1E
1E
1E
1E
1E
1E
1E
1E
1E
ENDCHAR
STARTCHAR 0032
ENCODING 50
SWIDTH 560 0
DWIDTH 14 0
BBX 12 18 1 0
BITMAP
0F00
3FC0
7FE0
7FE0
F9F0
F0F0
F9F0
FBE0
73E0
27C0
0F80
1F00
3E00
7C00
FFF0
FFF0
FFF0
7FF0
ENDCHAR
STARTCHAR 0033
ENCODING 51
SWIDTH 560 0
DWIDTH 14 0
BBX 12 17 1 0
BITMAP
FFE0
FFE0
FFE0
01E0
07C0
0F80
1F00
1FC0
1FE0
1FF0
00F0
00F0
01F0
FFF0
FFE0
FFC0
FF80
ENDCHAR
STARTCHAR 0034
ENCODING 52
SWIDTH 560 0
DWIDTH 14 0
BBX 13 18 1 0
BITMAP
0020
07A0
0F60
0F60
1EE0
3FE0
3DE0
79E0
79E0
F1E0
F1E0
FFF8
FFF8
FFF8
01E0
01E0
01E0
01E0
ENDCHAR
STARTCHAR 0035
ENCODING 53
SWIDTH 560 0
DWIDTH 14 0
BBX 12 17 1 0
BITMAP
7FE0
7FE0
7FE0
7800
7800
7F00
7FC0
7FE0
7FF0
01F0
00F0
00F0
01F0
FFF0
FFE0
FFC0
FF80
ENDCHAR
STARTCHAR 0036
ENCODING 54
SWIDTH 560 0
DWIDTH 14 0
BBX 12 17 1 0
BITMAP
0780
0F80
0F00
1F00
3E00
3E80
7DE0
79F0
FBF0
F0F0
F0F0
F0F0
F0F0
FFF0
7FE0
3FE0
1F80
ENDCHAR
STARTCHAR 0037
ENCODING 55
SWIDTH 560 0
DWIDTH 14 0
BBX 12 17 1 0
BITMAP
FFE0
FFF0
FFF0
FFF0
01E0
01E0
03E0
3FE0
3FE0
3FE0
0780
0780
0F80
0F00
0F00
1F00
1F00
ENDCHAR
STARTCHAR 0038
ENCODING 56
SWIDTH 560 0
DWIDTH 14 0
BBX 12 18 1 0
BITMAP
0F00
3FC0
7FE0
7FE0
F0F0
F0F0
79E0
7FE0
3FC0
7FE0
F9F0
F0F0
F0F0
F0F0
FFF0
FFF0
7FE0
1FC0
ENDCHAR
STARTCHAR 0039
ENCODING 57
SWIDTH 560 0
DWIDTH 14 0
BBX 12 18 1 0
BITMAP
0700
3FC0
7FE0
FFF0
F9F0
F0F0
F0F0
F0F0
F9F0
FDF0
7BE0
3BE0
07C0
0780
0F80
0F00
1F00
3E00
ENDCHAR
STARTCHAR 003A
ENCODING 58
SWIDTH 280 0
DWIDTH 7 0
BBX 5 12 1 0
BITMAP
78
78
F8
78
70
00
00
30
78
F8
F8
78
ENDCHAR
STARTCHAR 003B
ENCODING 59
SWIDTH 280 0
DWIDTH 7 0
BBX 6 16 1 -4
BITMAP
78
78
7C
78
30
00
00
00
78
78
F0
F0
F0
E0
E0
E0
ENDCHAR
STARTCHAR 003C
ENCODING 60
SWIDTH 800 0
DWIDTH 20 0
BBX 15 15 3 0
BITMAP
0002
001E
007E
01FC
0FF0
3F80
FE00
F000
FE00
7F80
0FE0
03FC
007E
001E
0002
ENDCHAR
STARTCHAR 003D
ENCODING 61
SWIDTH 800 0
DWIDTH 20 0
BBX 15 9 3 3
BITMAP
FFFE
FFFE
FFFE
0000
0000
0000
FFFE
FFFE
FFFE
ENDCHAR
STARTCHAR 003E
ENCODING 62
SWIDTH 800 0
DWIDTH 20 0
BBX 15 15 3 0
BITMAP
8000
E000
FC00
7F00
1FE0
03F8
00FE
001E
00FE
03F8
1FE0
7F00
FC00
F000
8000
ENDCHAR
STARTCHAR 003F
ENCODING 63
SWIDTH 480 0
DWIDTH 12 0
BBX 11 18 1 0
BITMAP
1E00
7F80
FFC0
FFE0
F3E0
21E0
01E0
1FE0
1FE0
1FC0
1F00
1E00
0000
0C00
1E00
1F00
1F00
1E00
ENDCHAR
STARTCHAR 0040
ENCODING 64
SWIDTH 1000 0
DWIDTH 25 0
BBX 23 22 1 -4
BITMAP
00FF80
03FFE0
0FC1F0
1E0038
3C001C
38000C
70FD8E
61FF8E
E1C786
E3838E
E3870E
E3870E
E3871C
E38F1C
E39FF8
63FFF0
70E1C0
380000
1E0070
0FC3E0
07FFC0
00FE00
ENDCHAR
STARTCHAR 0041
ENCODING 65
SWIDTH 600 0
DWIDTH 15 0
BBX 13 18 1 0
BITMAP
0780
1FE0
3FF0
7FF8
7FF8
F878
F878
F7F8
F7F8
F7F8
F7F8
F7F8
F078
F078
F078
F078
F078
F078
ENDCHAR
STARTCHAR 0042
ENCODING 66
SWIDTH 560 0
DWIDTH 14 0
BBX 13 18 1 0
BITMAP
0700
3FC0
7FE0
7FF0
F8F0
F8F0
F8F0
FFF0
FFE0
FFF0
FFF8
F8F8
F878
F8F8
FFF8
FFF8
FFF0
FFC0
ENDCHAR
STARTCHAR 0043
ENCODING 67
SWIDTH 480 0
DWIDTH 12 0
BBX 11 17 1 0
BITMAP
07E0
1FE0
3FE0
7FE0
FC00
F800
F000
F000
F000
F000
F800
F800
7E00
7FE0
3FE0
0FE0
03E0
ENDCHAR
STARTCHAR 0044
ENCODING 68
SWIDTH 640 0
DWIDTH 16 0
BBX 14 17 1 0
BITMAP
FFC0
FFE0
FFF0
FFF8
F8F8
F87C
F83C
F83C
F83C
F83C
F87C
F87C
F9F8
FFF8
FFF0
FFE0
FF00
ENDCHAR
STARTCHAR 0045
ENCODING 69
SWIDTH 520 0
DWIDTH 13 0
BBX 11 17 1 0
BITMAP
07E0
1FE0
3FE0
7FC0
FC00
F800
FFE0
FFE0
FFE0
FFE0
F800
F800
7E00
7FE0
3FE0
0FE0
03E0
ENDCHAR
STARTCHAR 0046
ENCODING 70
SWIDTH 440 0
DWIDTH 11 0
BBX 9 17 1 0
BITMAP
3F80
7F80
7F80
FF80
F800
F800
F800
FF80
FF80
FF80
FF80
F800
F800
F800
F800
F800
F800
ENDCHAR
STARTCHAR 0047
ENCODING 71
SWIDTH 760 0
DWIDTH 19 0
BBX 18 18 1 0
BITMAP
01E000
0FFC00
1FFE00
3FFE00
7F7C00
FC0800
F80000
F0FFC0
F0FFC0
F0FFC0
F0FF80
F80780
F80F80
7E1F00
7FFF00
3FFE00
1FFC00
07F800
ENDCHAR
STARTCHAR 0048
ENCODING 72
SWIDTH 600 0
DWIDTH 15 0
BBX 14 17 1 0
BITMAP
F87C
F87C
F87C
F87C
F87C
F87C
FFFC
FFFC
FFFC
FFFC
F87C
F87C
F87C
F87C
F87C
F87C
F87C
ENDCHAR
STARTCHAR 0049
ENCODING 73
SWIDTH 280 0
DWIDTH 7 0
BBX 5 17 1 0
BITMAP
F8
F8
F8
F8
F8
F8
F8
F8
F8
F8
F8
F8
F8
F8
F8
F8
F8
ENDCHAR
STARTCHAR 004A
ENCODING 74
SWIDTH 400 0
DWIDTH 10 0
BBX 9 17 0 0
BITMAP
0780
0780
0780
0780
0780
0780
0780
0780
0780
0780
0780
0780
0F80
FF80
FF80
FF00
FC00
ENDCHAR
STARTCHAR 004B
ENCODING 75
SWIDTH 600 0
DWIDTH 15 0
BBX 14 17 1 0
BITMAP
F87C
F8F8
F8F8
F9F0
F9F0
FBE0
FFC0
FFF0
FFF0
FFF8
F8F8
F878
F878
F878
F878
F878
F878
ENDCHAR
STARTCHAR 004C
ENCODING 76
SWIDTH 400 0
DWIDTH 10 0
BBX 10 17 1 0
BITMAP
F800
F800
F800
F800
F800
F800
F800
F800
F800
F800
F800
F800
F800
FFC0
7FC0
3FC0
1FC0
ENDCHAR
STARTCHAR 004D
ENCODING 77
SWIDTH 800 0
DWIDTH 20 0
BBX 21 18 0 0
BITMAP
0E0380
1F07C0
3F8FC0
3F8FE0
3F8FE0
3F8FE0
3FDFE0
3BDEE0
39DCE0
79DCE0
79DCF0
79FCF0
79F8F0
78F8F0
78F8F0
78F8F0
78F0F0
F870F8
ENDCHAR
STARTCHAR 004E
ENCODING 78
SWIDTH 640 0
DWIDTH 16 0
BBX 14 18 1 0
BITMAP
3000
783C
FC3C
FE3C
FE3C
FF3C
FF3C
F7BC
F7BC
F3FC
F3FC
F1FC
F1FC
F0FC
F0FC
F07C
F07C
F03C
ENDCHAR
STARTCHAR 004F
ENCODING 79
SWIDTH 760 0
DWIDTH 19 0
BBX 18 18 1 0
BITMAP
03E000
0FF800
1FFE00
3FFF00
7FFF00
FC1F80
F80F80
F00780
F007C0
F007C0
F007C0
F80780
F80F80
7E1F80
7FFF00
3FFE00
1FFC00
07F000
ENDCHAR
STARTCHAR 0050
ENCODING 80
SWIDTH 560 0
DWIDTH 14 0
BBX 13 18 1 0
BITMAP
0700
3FC0
7FE0
7FF0
FDF8
F8F8
F8F8
F8F8
FFF0
FFF0
FFE0
FFC0
F800
F800
F800
F800
F800
F800
ENDCHAR
STARTCHAR 0051
ENCODING 81
SWIDTH 760 0
DWIDTH 19 0
BBX 18 20 1 -2
BITMAP
03E000
0FF800
1FFE00
3FFF00
7FFF00
FC1F80
F80F80
F00780
F007C0
F007C0
F007C0
F9E780
F9EF80
7DFF80
7DFF00
3DFE00
1DFC00
05F800
01E000
01E000
ENDCHAR
STARTCHAR 0052
ENCODING 82
SWIDTH 560 0
DWIDTH 14 0
BBX 13 18 1 0
BITMAP
0700
3FE0
7FF0
7FF0
F9F0
F8F8
F8F0
FFF0
FFE0
FFE0
FFF0
FBF8
F8F8
F8F8
F8F8
F8F8
F8F8
F8F8
ENDCHAR
STARTCHAR 0053
ENCODING 83
SWIDTH 520 0
DWIDTH 13 0
BBX 12 17 1 0
BITMAP
3FE0
7FE0
FFE0
FFE0
F000
F800
FE00
7F80
3FC0
0FE0
03E0
01F0
01F0
FFE0
FFE0
FFC0
FF80
ENDCHAR
STARTCHAR 0054
ENCODING 84
SWIDTH 480 0
DWIDTH 12 0
BBX 12 17 0 0
BITMAP
FFF0
FFF0
FFF0
FFF0
0F00
0F00
0F00
0F00
0F00
0F00
0F00
0F00
0F00
0F00
0F00
0F00
0F00
ENDCHAR
STARTCHAR 0055
ENCODING 85
SWIDTH 600 0
DWIDTH 15 0
BBX 13 17 1 0
BITMAP
F078
F078
F078
F078
F078
F078
F078
F078
F078
F078
F078
F878
F8F8
7FF8
7FF0
3FE0
1FC0
ENDCHAR
STARTCHAR 0056
ENCODING 86
SWIDTH 520 0
DWIDTH 13 0
BBX 14 17 0 0
BITMAP
F03C
F07C
F878
7878
7878
78F8
7CF0
3CF0
3CF0
3DF0
3FE0
1FE0
1FE0
1FE0
0FC0
0FC0
0780
ENDCHAR
STARTCHAR 0057
ENCODING 87
SWIDTH 880 0
DWIDTH 22 0
BBX 21 17 1 0
BITMAP
F0F8F8
F0F8F8
F0F8F8
F0F8F8
F0F8F8
F0F8F8
F0F8F8
F0F8F8
F0F8F8
F0F8F8
F0F8F8
F0F8F8
F8F8F0
7FFFF0
7FFFF0
3FFFE0
1F8FC0
ENDCHAR
STARTCHAR 0058
ENCODING 88
SWIDTH 600 0
DWIDTH 15 0
BBX 14 17 1 0
BITMAP
F03C
F8FC
FFFC
FFFC
1FE0
0FC0
0F80
0780
0780
0780
0FC0
1FC0
3FF0
FFFC
FCFC
F87C
C01C
ENDCHAR
STARTCHAR 0059
ENCODING 89
SWIDTH 560 0
DWIDTH 14 0
BBX 12 17 1 0
BITMAP
F0F0
F0F0
F0F0
F0F0
F0F0
F0F0
F8F0
FFF0
7FE0
3FC0
1F80
0F00
0F00
0F00
0F00
0F00
0F00
ENDCHAR
STARTCHAR 005A
ENCODING 90
SWIDTH 520 0
DWIDTH 13 0
BBX 13 17 0 0
BITMAP
7FF0
7FF8
7FF8
7FF8
01F0
03E0
07E0
07C0
0F80
1F00
3F00
3E00
7C00
FFF8
FFF8
FFF8
7FF8
ENDCHAR
STARTCHAR 005B
ENCODING 91
SWIDTH 320 0
DWIDTH 8 0
BBX 5 23 2 -6
BITMAP
F8
E0
E0
E0
E0
E0
E0
E0
E0
E0
E0
E0
E0
E0
E0
E0
E0
E0
E0
E0
E0
F8
F8
ENDCHAR
STARTCHAR 005C
ENCODING 92
SWIDTH 240 0
DWIDTH 6 0
BBX 8 20 -1 -2
BITMAP
C0
60
60
60
70
30
30
38
18
18
1C
0C
0C
0E
06
06
07
03
03
03
ENDCHAR
STARTCHAR 005D
ENCODING 93
SWIDTH 320 0
DWIDTH 8 0
BBX 5 23 1 -6
BITMAP
F8
38
38
38
38
38
38
38
38
38
38
38
38
38
38
38
38
38
38
38
38
F8
F8
ENDCHAR
STARTCHAR 005E
ENCODING 94
SWIDTH 1000 0
DWIDTH 25 0
BBX 15 7 5 11
BITMAP
07C0
07C0
0FE0
1EF0
3C78
783C
F01E
ENDCHAR
STARTCHAR 005F
ENCODING 95
SWIDTH 480 0
DWIDTH 12 0
BBX 13 3 0 -6
BITMAP
FFF8
FFF8
FFF8
ENDCHAR
STARTCHAR 0060
ENCODING 96
SWIDTH 480 0
DWIDTH 12 0
BBX 5 4 3 14
BITMAP
E0
70
30
18
ENDCHAR
STARTCHAR 0061
ENCODING 97
SWIDTH 560 0
DWIDTH 14 0
BBX 12 13 1 0
BITMAP
0E00
3F80
7FE0
FFE0
F9F0
F0F0
F0F0
F0F0
F0F0
FFF0
7FF0
7FF0
1FF0
ENDCHAR
STARTCHAR 0062
ENCODING 98
SWIDTH 560 0
DWIDTH 14 0
BBX 12 17 1 0
BITMAP
F000
F000
F000
F000
FF00
FFC0
FFE0
FFF0
F1F0
F0F0
F0F0
F0F0
F0F0
7FF0
7FE0
3FE0
1F80
ENDCHAR
STARTCHAR 0063
ENCODING 99
SWIDTH 360 0
DWIDTH 9 0
BBX 8 12 1 0
BITMAP
1F
7F
7F
FC
F0
F0
F0
F0
FF
7F
3F
0F
ENDCHAR
STARTCHAR 0064
ENCODING 100
SWIDTH 560 0
DWIDTH 14 0
BBX 12 17 1 0
BITMAP
00F0
00F0
00F0
00F0
04F0
3FF0
7FF0
FFF0
F9F0
F0F0
F0F0
F0F0
F0F0
FFF0
7FE0
7FC0
1F80
ENDCHAR
STARTCHAR 0065
ENCODING 101
SWIDTH 520 0
DWIDTH 13 0
BBX 13 13 1 0
BITMAP
0600
3F80
7FE0
FFE0
F1E0
E7C0
EF00
F660
F078
FFF0
7FE0
3FC0
1F80
ENDCHAR
STARTCHAR 0066
ENCODING 102
SWIDTH 320 0
DWIDTH 8 0
BBX 8 17 1 0
BITMAP
3F
7F
FF
F0
F0
FF
FF
FF
F0
F0
F0
F0
F0
F0
F0
F0
F0
ENDCHAR
STARTCHAR 0067
ENCODING 103
SWIDTH 560 0
DWIDTH 14 0
BBX 12 19 1 -6
BITMAP
0600
3F80
7FE0
FFE0
F9F0
F0F0
F0F0
F0F0
F0F0
FFF0
7FF0
3FF0
1FF0
00F0
41F0
7FE0
7FE0
7FC0
0400
ENDCHAR
STARTCHAR 0068
ENCODING 104
SWIDTH 520 0
DWIDTH 13 0
BBX 12 17 1 0
BITMAP
F000
F000
F000
F000
F200
FFC0
FFE0
FFE0
F9E0
F0E0
F0F0
F0F0
F0F0
F0F0
F0F0
F0F0
F0F0
ENDCHAR
STARTCHAR 0069
ENCODING 105
SWIDTH 240 0
DWIDTH 6 0
BBX 4 18 1 0
BITMAP
70
F0
F0
F0
00
00
F0
F0
F0
F0
F0
F0
F0
F0
F0
F0
F0
F0
ENDCHAR
STARTCHAR 006A
ENCODING 106
SWIDTH 240 0
DWIDTH 6 0
BBX 7 23 -2 -5
BITMAP
0E
1E
1E
1E
00
00
1E
1E
1E
1E
1E
1E
1E
1E
1E
1E
1E
1E
1E
3E
FE
FC
F8
ENDCHAR
STARTCHAR 006B
ENCODING 107
SWIDTH 480 0
DWIDTH 12 0
BBX 11 17 1 0
BITMAP
F000
F000
F000
F000
F000
F1E0
F1E0
F3C0
F7C0
FF80
FFC0
FFE0
F3E0
F1E0
F1E0
F1E0
F1E0
ENDCHAR
STARTCHAR 006C
ENCODING 108
SWIDTH 240 0
DWIDTH 6 0
BBX 4 17 1 0
BITMAP
F0
F0
F0
F0
F0
F0
F0
F0
F0
F0
F0
F0
F0
F0
F0
F0
F0
ENDCHAR
STARTCHAR 006D
ENCODING 109
SWIDTH 800 0
DWIDTH 20 0
BBX 18 13 1 0
BITMAP
041800
3F7F00
7FFF80
7FFF80
F3F7C0
F1E3C0
F1E3C0
F1E3C0
F1E3C0
F1E3C0
F1E3C0
F1E3C0
F1E3C0
ENDCHAR
STARTCHAR 006E
ENCODING 110
SWIDTH 520 0
DWIDTH 13 0
BBX 11 13 1 0
BITMAP
0400
3F80
7FC0
7FE0
F9E0
F1E0
F1E0
F1E0
F1E0
F1E0
F1E0
F1E0
F1E0
ENDCHAR
STARTCHAR 006F
ENCODING 111
SWIDTH 520 0
DWIDTH 13 0
BBX 12 13 1 0
BITMAP
0600
3F80
7FE0
FFE0
F9F0
F0F0
F0F0
F0F0
F0F0
FFF0
7FE0
3FC0
1F80
ENDCHAR
STARTCHAR 0070
ENCODING 112
SWIDTH 560 0
DWIDTH 14 0
BBX 12 18 1 -5
BITMAP
0600
1FC0
7FE0
7FF0
F9F0
F0F0
F0F0
F0F0
F0F0
FFF0
FFE0
FFE0
FF80
F000
F000
F000
F000
F000
ENDCHAR
STARTCHAR 0071
ENCODING 113
SWIDTH 560 0
DWIDTH 14 0
BBX 12 18 1 -5
BITMAP
0E00
3F80
7FE0
FFE0
F9F0
F0F0
F0F0
F0F0
F0F0
FFF0
7FF0
7FF0
1FF0
00F0
00F0
00F0
00F0
00F0
ENDCHAR
STARTCHAR 0072
ENCODING 114
SWIDTH 360 0
DWIDTH 9 0
BBX 8 12 1 0
BITMAP
F7
FF
FF
FE
F8
F0
F0
F0
F0
F0
F0
F0
ENDCHAR
STARTCHAR 0073
ENCODING 115
SWIDTH 400 0
DWIDTH 10 0
BBX 9 12 1 0
BITMAP
7F80
FF80
FF80
F000
FC00
7F00
3F80
0780
FF80
FF80
FF80
FE00
ENDCHAR
STARTCHAR 0074
ENCODING 116
SWIDTH 320 0
DWIDTH 8 0
BBX 7 15 1 0
BITMAP
F0
F0
F0
FE
FE
FE
F0
F0
F0
F0
F0
FE
7E
7E
1E
ENDCHAR
STARTCHAR 0075
ENCODING 117
SWIDTH 520 0
DWIDTH 13 0
BBX 11 12 1 0
BITMAP
F1E0
F1E0
F1E0
F1E0
F1E0
F1E0
F1E0
F1E0
FFE0
7FE0
3FC0
1F80
ENDCHAR
STARTCHAR 0076
ENCODING 118
SWIDTH 440 0
DWIDTH 11 0
BBX 12 12 0 0
BITMAP
F0F0
F0F0
79E0
79E0
79E0
39C0
3FC0
3FC0
1F80
1F80
1F80
0F00
ENDCHAR
STARTCHAR 0077
ENCODING 119
SWIDTH 800 0
DWIDTH 20 0
BBX 18 12 1 0
BITMAP
F1E3C0
F1E3C0
F1E3C0
F1E3C0
F1E3C0
F1E3C0
F1E3C0
F1E3C0
FFFFC0
7FFF80
7FFF80
1F3E00
ENDCHAR
STARTCHAR 0078
ENCODING 120
SWIDTH 440 0
DWIDTH 11 0
BBX 11 12 0 0
BITMAP
F1E0
FBE0
FFE0
7FC0
1F00
0F00
1F00
1F00
FFE0
FFE0
FBE0
E0E0
ENDCHAR
STARTCHAR 0079
ENCODING 121
SWIDTH 520 0
DWIDTH 13 0
BBX 11 17 1 -5
BITMAP
F1E0
F1E0
F1E0
F1E0
F1E0
F1E0
F1E0
F1E0
FBE0
7FE0
7FC0
1F80
0F00
0F00
0F00
0F00
0F00
ENDCHAR
STARTCHAR 007A
ENCODING 122
SWIDTH 440 0
DWIDTH 11 0
BBX 11 12 0 0
BITMAP
7FC0
7FE0
7FE0
07C0
0F80
1F00
1F00
3E00
7FE0
FFE0
FFE0
7FE0
ENDCHAR
STARTCHAR 007B
ENCODING 123
SWIDTH 480 0
DWIDTH 12 0
BBX 9 23 2 -5
BITMAP
0F80
1F80
1F80
1E00
1C00
1C00
1C00
1C00
1C00
3C00
FC00
F000
FC00
3C00
1C00
1C00
1C00
1C00
1C00
1E00
1F80
1F80
0F80
ENDCHAR
STARTCHAR 007C
ENCODING 124
SWIDTH 480 0
DWIDTH 12 0
BBX 3 25 5 -6
BITMAP
E0
E0
E0
E0
E0
E0
E0
E0
E0
E0
E0
E0
E0
E0
E0
E0
E0
E0
E0
E0
E0
E0
E0
E0
E0
ENDCHAR
STARTCHAR 007D
ENCODING 125
SWIDTH 480 0
DWIDTH 12 0
BBX 9 23 2 -5
BITMAP
F000
F800
F800
3C00
3C00
3C00
3C00
3C00
3C00
3C00
1F80
0780
1F80
3C00
3C00
3C00
3C00
3C00
3C00
3C00
FC00
F800
F000
ENDCHAR
STARTCHAR 007E
ENCODING 126
SWIDTH 800 0
DWIDTH 20 0
BBX 17 5 2 5
BITMAP
0E0080
7FC380
FFFF80
E1FF00
803C00
ENDCHAR
STARTCHAR 0080
ENCODING 128
SWIDTH 560 0
DWIDTH 14 0
BBX 13 17 0 0
BITMAP
01F8
07F8
0FF8
1FE0
1F00
1E00
FFF0
3E00
3C00
FFF0
3E00
1E00
1F80
0FF8
0FF8
03F8
00F8
ENDCHAR
STARTCHAR 00A0
ENCODING 160
SWIDTH 560 0
DWIDTH 14 0
BBX 0 0 0 0
BITMAP
ENDCHAR
STARTCHAR 00A1
ENCODING 161
SWIDTH 320 0
DWIDTH 8 0
BBX 5 18 2 0
BITMAP
60
F0
F8
F0
F0
00
F0
F0
F0
F0
F0
F0
F0
F0
F0
F0
F0
F0
ENDCHAR
STARTCHAR 00A2
ENCODING 162
SWIDTH 560 0
DWIDTH 14 0
BBX 8 17 3 0
BITMAP
0C
0C
0C
3F
7F
FF
F0
E0
E0
E0
FF
7F
7F
0F
0C
0C
0C
ENDCHAR
STARTCHAR 00A3
ENCODING 163
SWIDTH 560 0
DWIDTH 14 0
BBX 14 18 0 0
BITMAP
03C0
0FE0
0FE0
1FE0
1F00
1E00
1E00
7F80
7F80
7F80
1E3C
1E3C
3E7C
3C7C
FFF8
FFF8
FFF0
FFE0
ENDCHAR
STARTCHAR 00A4
ENCODING 164
SWIDTH 560 0
DWIDTH 14 0
BBX 13 17 0 0
BITMAP
01F8
07F8
0FF8
1FE0
1F00
1E00
FFF0
3E00
3C00
FFF0
3E00
1E00
1F80
0FF8
0FF8
03F8
00F8
ENDCHAR
STARTCHAR 00A5
ENCODING 165
SWIDTH 560 0
DWIDTH 14 0
BBX 15 17 0 0
BITMAP
783C
783C
7878
3C78
FC7E
FEFE
1EF0
0FE0
FFFE
FFFE
07C0
0780
0780
0780
0780
0780
0780
ENDCHAR
STARTCHAR 00A6
ENCODING 166
SWIDTH 480 0
DWIDTH 12 0
BBX 3 21 5 -4
BITMAP
E0
E0
E0
E0
E0
E0
E0
E0
E0
00
00
00
E0
E0
E0
E0
E0
E0
E0
E0
E0
ENDCHAR
STARTCHAR 00A7
ENCODING 167
SWIDTH 520 0
DWIDTH 13 0
BBX 10 19 2 -2
BITMAP
7F80
FF80
FF80
F000
F000
F800
FE00
FF80
E7C0
F1C0
FFC0
3FC0
0F80
03C0
03C0
FFC0
FFC0
FF80
FE00
ENDCHAR
STARTCHAR 00A8
ENCODING 168
SWIDTH 480 0
DWIDTH 12 0
BBX 7 4 3 14
BITMAP
04
EE
EE
04
ENDCHAR
STARTCHAR 00A9
ENCODING 169
SWIDTH 800 0
DWIDTH 20 0
BBX 19 18 1 0
BITMAP
03F800
0FFE00
1C0700
300380
63F980
67B8C0
471CC0
C60040
CE0040
CE0060
C60040
471CC0
67F8C0
63F980
300380
1C0700
0FFE00
03F800
ENDCHAR
STARTCHAR 00AA
ENCODING 170
SWIDTH 400 0
DWIDTH 10 0
BBX 10 9 0 9
BITMAP
0C00
3F00
7F80
73C0
E1C0
F1C0
7DC0
7DC0
3DC0
ENDCHAR
STARTCHAR 00AB
ENCODING 171
SWIDTH 520 0
DWIDTH 13 0
BBX 10 8 2 2
BITMAP
39C0
7380
E700
E600
E700
7380
3180
39C0
ENDCHAR
STARTCHAR 00AC
ENCODING 172
SWIDTH 800 0
DWIDTH 20 0
BBX 15 7 3 4
BITMAP
FFFE
FFFE
FFFE
000E
000E
000E
000E
ENDCHAR
STARTCHAR 00AD
ENCODING 173
SWIDTH 320 0
DWIDTH 8 0
BBX 6 3 1 5
BITMAP
FC
FC
FC
ENDCHAR
STARTCHAR 00AE
ENCODING 174
SWIDTH 800 0
DWIDTH 20 0
BBX 19 18 1 0
BITMAP
03F800
0FFE00
1C0700
300380
63F980
63FCC0
431CC0
C31C40
C3F840
C3F060
C37040
4338C0
6338C0
631D80
300380
1C0700
0FFE00
03F800
ENDCHAR
STARTCHAR 00AF
ENCODING 175
SWIDTH 480 0
DWIDTH 12 0
BBX 7 2 3 15
BITMAP
FE
FE
ENDCHAR
STARTCHAR 00B0
ENCODING 176
SWIDTH 320 0
DWIDTH 8 0
BBX 8 8 0 10
BITMAP
3C
7E
63
C3
C3
67
7E
18
ENDCHAR
STARTCHAR 00B1
ENCODING 177
SWIDTH 800 0
DWIDTH 20 0
BBX 15 15 3 0
BITMAP
0380
0380
0380
0380
FFFE
FFFE
FFFE
0380
0380
0380
0000
0000
FFFE
FFFE
FFFE
ENDCHAR
STARTCHAR 00B2
ENCODING 178
SWIDTH 360 0
DWIDTH 9 0
BBX 8 11 1 7
BITMAP
38
7E
FE
E6
EE
DE
3C
78
E0
FF
FF
ENDCHAR
STARTCHAR 00B3
ENCODING 179
SWIDTH 360 0
DWIDTH 9 0
BBX 8 10 1 7
BITMAP
FE
FE
1C
38
7E
7E
07
0E
FE
FC
ENDCHAR
STARTCHAR 00B4
ENCODING 180
SWIDTH 480 0
DWIDTH 12 0
BBX 4 4 5 14
BITMAP
70
60
C0
C0
ENDCHAR
STARTCHAR 00B5
ENCODING 181
SWIDTH 640 0
DWIDTH 16 0
BBX 15 18 0 -5
BITMAP
3E1E
3C1E
3C1E
3C3E
3C3E
7C3C
7C3C
7C3C
7C7C
7C7C
7FFC
FFFC
FFF8
F000
F000
F000
F000
F000
ENDCHAR
STARTCHAR 00B6
ENCODING 182
SWIDTH 480 0
DWIDTH 12 0
BBX 12 18 0 0
BITMAP
1FF0
7E60
7E60
FE60
FE60
7E60
7E60
3E60
0660
0660
0660
0660
0660
0660
0660
0660
0660
0660
ENDCHAR
STARTCHAR 00B7
ENCODING 183
SWIDTH 280 0
DWIDTH 7 0
BBX 5 5 1 6
BITMAP
78
F8
F8
F8
20
ENDCHAR
STARTCHAR 00B8
ENCODING 184
SWIDTH 480 0
DWIDTH 12 0
BBX 7 7 3 -6
BITMAP
10
10
1C
3E
06
FE
7C
ENDCHAR
STARTCHAR 00B9
ENCODING 185
SWIDTH 360 0
DWIDTH 9 0
BBX 5 10 2 7
BITMAP
F8
F8
38
38
38
38
38
38
38
38
ENDCHAR
STARTCHAR 00BA
ENCODING 186
SWIDTH 400 0
DWIDTH 10 0
BBX 10 9 0 9
BITMAP
0C00
3F00
7F80
73C0
F1C0
71C0
7BC0
7F80
3F00
ENDCHAR
STARTCHAR 00BB
ENCODING 187
SWIDTH 520 0
DWIDTH 13 0
BBX 11 8 1 2
BITMAP
7300
7380
39C0
1CE0
1CE0
39C0
7380
E700
ENDCHAR
STARTCHAR 00BC
ENCODING 188
SWIDTH 840 0
DWIDTH 21 0
BBX 20 17 2 0
BITMAP
F00E00
F00C00
301C00
303800
303000
307000
306000
30E180
30C3C0
01C340
0386C0
030EC0
070CC0
061FF0
0E0FF0
0C00C0
1800C0
ENDCHAR
STARTCHAR 00BD
ENCODING 189
SWIDTH 840 0
DWIDTH 21 0
BBX 19 17 2 0
BITMAP
F00E00
F00C00
301C00
303800
303000
307000
306000
30E780
30CFE0
01CEE0
038EE0
030FE0
0703C0
060780
0E0F00
0C0FE0
180FE0
ENDCHAR
STARTCHAR 00BE
ENCODING 190
SWIDTH 840 0
DWIDTH 21 0
BBX 21 17 1 0
BITMAP
FE0700
FE0600
1C0E00
381C00
7E1800
0E3800
0E3000
FE70C0
FC61E0
00E1A0
01C360
018760
038660
030FF8
0707F8
060060
0C0060
ENDCHAR
STARTCHAR 00BF
ENCODING 191
SWIDTH 480 0
DWIDTH 12 0
BBX 11 18 1 0
BITMAP
0600
0F00
1F00
1F00
0F00
0000
0F00
0F00
3F00
7F00
FF00
F800
F000
F1E0
FFE0
FFE0
7FC0
3F80
ENDCHAR
STARTCHAR 00C0
ENCODING 192
SWIDTH 600 0
DWIDTH 15 0
BBX 13 24 1 0
BITMAP
1C00
0E00
0700
0300
0180
0000
0780
1FE0
3FF0
7FF8
7FF8
F878
F878
F7F8
F7F8
F7F8
F7F8
F7F8
F078
F078
F078
F078
F078
F078
ENDCHAR
STARTCHAR 00C1
ENCODING 193
SWIDTH 600 0
DWIDTH 15 0
BBX 13 24 1 0
BITMAP
01C0
0180
0380
0300
0600
0000
0780
1FE0
3FF0
7FF8
7FF8
F878
F878
F7F8
F7F8
F7F8
F7F8
F7F8
F078
F078
F078
F078
F078
F078
ENDCHAR
STARTCHAR 00C2
ENCODING 194
SWIDTH 600 0
DWIDTH 15 0
BBX 13 23 1 0
BITMAP
0780
0780
0DC0
0CC0
1860
0780
1FE0
3FF0
7FF8
7FF8
F878
F878
F7F8
F7F8
F7F8
F7F8
F7F8
F078
F078
F078
F078
F078
F078
ENDCHAR
STARTCHAR 00C3
ENCODING 195
SWIDTH 600 0
DWIDTH 15 0
BBX 13 23 1 0
BITMAP
0460
0FC0
1B80
0000
0000
0780
1FE0
3FF0
7FF8
7FF8
F878
F878
F7F8
F7F8
F7F8
F7F8
F7F8
F078
F078
F078
F078
F078
F078
ENDCHAR
STARTCHAR 00C4
ENCODING 196
SWIDTH 600 0
DWIDTH 15 0
BBX 13 23 1 0
BITMAP
0CC0
1DE0
1CC0
0000
0000
0780
1FE0
3FF0
7FF8
7FF8
F878
F878
F7F8
F7F8
F7F8
F7F8
F7F8
F078
F078
F078
F078
F078
F078
ENDCHAR
STARTCHAR 00C5
ENCODING 197
SWIDTH 600 0
DWIDTH 15 0
BBX 13 24 1 0
BITMAP
0780
0F80
0CC0
08C0
0FC0
0780
0780
1FE0
3FF0
7FF8
7FF8
F878
F878
F7F8
F7F8
F7F8
F7F8
F7F8
F078
F078
F078
F078
F078
F078
ENDCHAR
STARTCHAR 00C6
ENCODING 198
SWIDTH 840 0
DWIDTH 21 0
BBX 20 18 1 0
BITMAP
078000
1FE3F0
3FFFF0
7FFFF0
7DFFD0
F87E00
F87C00
F7FFF0
F7FFF0
F7FFF0
F7FFF0
F07800
F07C00
F07E00
F07FF0
F07FF0
F07FF0
F079F0
ENDCHAR
STARTCHAR 00C7
ENCODING 199
SWIDTH 480 0
DWIDTH 12 0
BBX 11 23 1 -6
BITMAP
07E0
1FE0
3FE0
7FE0
FC00
F800
F000
F000
F000
F000
F800
F800
7E00
7FE0
3FE0
0FE0
03E0
0200
0380
03C0
00C0
0FC0
0F80
ENDCHAR
STARTCHAR 00C8
ENCODING 200
SWIDTH 520 0
DWIDTH 13 0
BBX 11 24 1 0
BITMAP
0E00
0600
0700
0300
0180
0000
0000
07E0
1FE0
3FE0
7FC0
FC00
F800
FFE0
FFE0
FFE0
FFE0
F800
F800
7E00
7FE0
3FE0
0FE0
03E0
ENDCHAR
STARTCHAR 00C9
ENCODING 201
SWIDTH 520 0
DWIDTH 13 0
BBX 11 24 1 0
BITMAP
00E0
01C0
0380
0300
0600
0000
0000
07E0
1FE0
3FE0
7FC0
FC00
F800
FFE0
FFE0
FFE0
FFE0
F800
F800
7E00
7FE0
3FE0
0FE0
03E0
ENDCHAR
STARTCHAR 00CA
ENCODING 202
SWIDTH 520 0
DWIDTH 13 0
BBX 11 23 1 0
BITMAP
0780
0780
0EC0
0C60
1860
0000
07E0
1FE0
3FE0
7FC0
FC00
F800
FFE0
FFE0
FFE0
FFE0
F800
F800
7E00
7FE0
3FE0
0FE0
03E0
ENDCHAR
STARTCHAR 00CB
ENCODING 203
SWIDTH 520 0
DWIDTH 13 0
BBX 11 23 1 0
BITMAP
0CC0
1EE0
0CE0
0000
0000
0000
07E0
1FE0
3FE0
7FC0
FC00
F800
FFE0
FFE0
FFE0
FFE0
F800
F800
7E00
7FE0
3FE0
0FE0
03E0
ENDCHAR
STARTCHAR 00CC
ENCODING 204
SWIDTH 280 0
DWIDTH 7 0
BBX 6 24 0 0
BITMAP
E0
70
30
18
18
00
00
7C
7C
7C
7C
7C
7C
7C
7C
7C
7C
7C
7C
7C
7C
7C
7C
7C
ENDCHAR
STARTCHAR 00CD
ENCODING 205
SWIDTH 280 0
DWIDTH 7 0
BBX 6 24 1 0
BITMAP
1C
38
30
60
60
00
00
F8
F8
F8
F8
F8
F8
F8
F8
F8
F8
F8
F8
F8
F8
F8
F8
F8
ENDCHAR
STARTCHAR 00CE
ENCODING 206
SWIDTH 280 0
DWIDTH 7 0
BBX 7 24 0 0
BITMAP
38
7C
6C
E6
C6
00
00
7C
7C
7C
7C
7C
7C
7C
7C
7C
7C
7C
7C
7C
7C
7C
7C
7C
ENDCHAR
STARTCHAR 00CF
ENCODING 207
SWIDTH 280 0
DWIDTH 7 0
BBX 7 23 0 0
BITMAP
C6
EE
EE
00
00
00
7C
7C
7C
7C
7C
7C
7C
7C
7C
7C
7C
7C
7C
7C
7C
7C
7C
ENDCHAR
STARTCHAR 00D0
ENCODING 208
SWIDTH 640 0
DWIDTH 16 0
BBX 15 17 0 0
BITMAP
7FE0
7FF0
7FF8
7FFC
7C7E
7C3E
7C1E
FF1E
FF1E
7C1E
7C3E
7C3E
7CFC
7FFC
7FF8
7FF0
7FC0
ENDCHAR
STARTCHAR 00D1
ENCODING 209
SWIDTH 640 0
DWIDTH 16 0
BBX 14 23 1 0
BITMAP
0020
0FE0
0BC0
0000
0000
3000
783C
FC3C
FE3C
FE3C
FF3C
FF3C
F7BC
F7BC
F3FC
F3FC
F1FC
F1FC
F0FC
F0FC
F07C
F07C
F03C
ENDCHAR
STARTCHAR 00D2
ENCODING 210
SWIDTH 760 0
DWIDTH 19 0
BBX 18 24 1 0
BITMAP
070000
038000
018000
00C000
004000
000000
03E000
0FF800
1FFE00
3FFF00
7FFF00
FC1F80
F80F80
F00780
F007C0
F007C0
F007C0
F80780
F80F80
7E1F80
7FFF00
3FFE00
1FFC00
07F000
ENDCHAR
STARTCHAR 00D3
ENCODING 211
SWIDTH 760 0
DWIDTH 19 0
BBX 18 24 1 0
BITMAP
007000
00E000
00C000
01C000
018000
000000
03E000
0FF800
1FFE00
3FFF00
7FFF00
FC1F80
F80F80
F00780
F007C0
F007C0
F007C0
F80780
F80F80
7E1F80
7FFF00
3FFE00
1FFC00
07F000
ENDCHAR
STARTCHAR 00D4
ENCODING 212
SWIDTH 760 0
DWIDTH 19 0
BBX 18 23 1 0
BITMAP
01C000
03E000
036000
063000
061800
03E000
0FF800
1FFE00
3FFF00
7FFF00
FC1F80
F80F80
F00780
F007C0
F007C0
F007C0
F80780
F80F80
7E1F80
7FFF00
3FFE00
1FFC00
07F000
ENDCHAR
STARTCHAR 00D5
ENCODING 213
SWIDTH 760 0
DWIDTH 19 0
BBX 18 23 1 0
BITMAP
011000
07F000
06E000
000000
000000
03E000
0FF800
1FFE00
3FFF00
7FFF00
FC1F80
F80F80
F00780
F007C0
F007C0
F007C0
F80780
F80F80
7E1F80
7FFF00
3FFE00
1FFC00
07F000
ENDCHAR
STARTCHAR 00D6
ENCODING 214
SWIDTH 760 0
DWIDTH 19 0
BBX 18 23 1 0
BITMAP
073000
077000
077000
000000
000000
03E000
0FF800
1FFE00
3FFF00
7FFF00
FC1F80
F80F80
F00780
F007C0
F007C0
F007C0
F80780
F80F80
7E1F80
7FFF00
3FFE00
1FFC00
07F000
ENDCHAR
STARTCHAR 00D7
ENCODING 215
SWIDTH 800 0
DWIDTH 20 0
BBX 14 15 4 0
BITMAP
4000
E018
F03C
7878
3CF0
1FE0
0FC0
0780
0FC0
1FE0
3CF0
7878
F03C
E018
4000
ENDCHAR
STARTCHAR 00D8
ENCODING 216
SWIDTH 760 0
DWIDTH 19 0
BBX 18 19 1 0
BITMAP
03E180
0FFB80
1FFF00
3FFF00
7F7F00
FC3F80
F87F80
F07780
F0E7C0
F1C7C0
F387C0
FF0780
FE0F80
7E1F80
7FFF00
7FFE00
7FFC00
E7F000
400000
ENDCHAR
STARTCHAR 00D9
ENCODING 217
SWIDTH 600 0
DWIDTH 15 0
BBX 13 24 1 0
BITMAP
1C00
0E00
0700
0300
0180
0000
0000
F078
F078
F078
F078
F078
F078
F078
F078
F078
F078
F078
F878
F8F8
7FF8
7FF0
3FE0
1FC0
ENDCHAR
STARTCHAR 00DA
ENCODING 218
SWIDTH 600 0
DWIDTH 15 0
BBX 13 24 1 0
BITMAP
01C0
0180
0380
0300
0600
0000
0000
F078
F078
F078
F078
F078
F078
F078
F078
F078
F078
F078
F878
F8F8
7FF8
7FF0
3FE0
1FC0
ENDCHAR
STARTCHAR 00DB
ENCODING 219
SWIDTH 600 0
DWIDTH 15 0
BBX 13 24 1 0
BITMAP
0700
0780
0F80
0CC0
1840
0000
0000
F078
F078
F078
F078
F078
F078
F078
F078
F078
F078
F078
F878
F8F8
7FF8
7FF0
3FE0
1FC0
ENDCHAR
STARTCHAR 00DC
ENCODING 220
SWIDTH 600 0
DWIDTH 15 0
BBX 13 23 1 0
BITMAP
0CC0
1DE0
1CC0
0000
0000
0000
F078
F078
F078
F078
F078
F078
F078
F078
F078
F078
F078
F878
F8F8
7FF8
7FF0
3FE0
1FC0
ENDCHAR
STARTCHAR 00DD
ENCODING 221
SWIDTH 560 0
DWIDTH 14 0
BBX 12 24 1 0
BITMAP
03C0
0380
0700
0600
0C00
0000
0000
F0F0
F0F0
F0F0
F0F0
F0F0
F0F0
F8F0
FFF0
7FE0
3FC0
1F80
0F00
0F00
0F00
0F00
0F00
0F00
ENDCHAR
STARTCHAR 00DE
ENCODING 222
SWIDTH 560 0
DWIDTH 14 0
BBX 13 18 1 0
BITMAP
F800
F800
F800
FFC0
FFE0
FFF0
FFF0
F8F8
F8F8
F8F8
FBF8
FFF0
FFE0
FFC0
FF00
F800
F800
F800
ENDCHAR
STARTCHAR 00DF
ENCODING 223
SWIDTH 560 0
DWIDTH 14 0
BBX 14 18 0 0
BITMAP
0700
1FC0
3FE0
3FF0
78F0
78E0
F9E0
FBE0
F9F0
78F8
787C
783C
783C
783C
7BFC
7BFC
7BF8
7BE0
ENDCHAR
STARTCHAR 00E0
ENCODING 224
SWIDTH 560 0
DWIDTH 14 0
BBX 12 18 1 0
BITMAP
1C00
0E00
0600
0300
0000
0E00
3F80
7FE0
FFE0
F9F0
F0F0
F0F0
F0F0
F0F0
FFF0
7FF0
7FF0
1FF0
ENDCHAR
STARTCHAR 00E1
ENCODING 225
SWIDTH 560 0
DWIDTH 14 0
BBX 12 18 1 0
BITMAP
0380
0700
0600
0C00
0000
0E00
3F80
7FE0
FFE0
F9F0
F0F0
F0F0
F0F0
F0F0
FFF0
7FF0
7FF0
1FF0
ENDCHAR
STARTCHAR 00E2
ENCODING 226
SWIDTH 560 0
DWIDTH 14 0
BBX 12 18 1 0
BITMAP
0F00
0F00
1980
1080
0000
0E00
3F80
7FE0
FFE0
F9F0
F0F0
F0F0
F0F0
F0F0
FFF0
7FF0
7FF0
1FF0
ENDCHAR
STARTCHAR 00E3
ENCODING 227
SWIDTH 560 0
DWIDTH 14 0
BBX 12 18 1 0
BITMAP
00C0
1FC0
3F80
3000
0000
0E00
3F80
7FE0
FFE0
F9F0
F0F0
F0F0
F0F0
F0F0
FFF0
7FF0
7FF0
1FF0
ENDCHAR
STARTCHAR 00E4
ENCODING 228
SWIDTH 560 0
DWIDTH 14 0
BBX 12 17 1 1
BITMAP
39C0
39C0
0000
0000
0E00
3F80
7FE0
FFE0
F9F0
F0F0
F0F0
F0F0
F0F0
FFF0
7FF0
7FF0
1FF0
ENDCHAR
STARTCHAR 00E5
ENCODING 229
SWIDTH 560 0
DWIDTH 14 0
BBX 12 20 1 0
BITMAP
0700
0F80
1880
18C0
1980
0F80
0600
0E00
3F80
7FE0
FFE0
F9F0
F0F0
F0F0
F0F0
F0F0
FFF0
7FF0
7FF0
1FF0
ENDCHAR
STARTCHAR 00E6
ENCODING 230
SWIDTH 840 0
DWIDTH 21 0
BBX 21 13 0 0
BITMAP
040200
7F9FC0
7FFFE0
3BFDF0
00F0F0
0FF7F0
3FF7C0
7CF300
F0F060
F1F8F8
FFFFF0
7FBFE0
3F0F80
ENDCHAR
STARTCHAR 00E7
ENCODING 231
SWIDTH 360 0
DWIDTH 9 0
BBX 8 18 1 -6
BITMAP
1F
7F
7F
FC
F0
F0
F0
F0
FF
7F
3F
0F
08
0E
0F
03
3F
3E
ENDCHAR
STARTCHAR 00E8
ENCODING 232
SWIDTH 520 0
DWIDTH 13 0
BBX 13 18 1 0
BITMAP
1C00
0C00
0600
0300
0000
0600
3F80
7FE0
FFE0
F1E0
E7C0
EF00
F660
F078
FFF0
7FE0
3FC0
1F80
ENDCHAR
STARTCHAR 00E9
ENCODING 233
SWIDTH 520 0
DWIDTH 13 0
BBX 13 18 1 0
BITMAP
0380
0700
0600
0C00
0000
0600
3F80
7FE0
FFE0
F1E0
E7C0
EF00
F660
F078
FFF0
7FE0
3FC0
1F80
ENDCHAR
STARTCHAR 00EA
ENCODING 234
SWIDTH 520 0
DWIDTH 13 0
BBX 13 18 1 0
BITMAP
0F00
0F00
1980
3180
0000
0600
3F80
7FE0
FFE0
F1E0
E7C0
EF00
F660
F078
FFF0
7FE0
3FC0
1F80
ENDCHAR
STARTCHAR 00EB
ENCODING 235
SWIDTH 520 0
DWIDTH 13 0
BBX 13 17 1 1
BITMAP
39C0
39C0
0100
0000
0600
3F80
7FE0
FFE0
F1E0
E7C0
EF00
F660
F078
FFF0
7FE0
3FC0
1F80
ENDCHAR
STARTCHAR 00EC
ENCODING 236
SWIDTH 240 0
DWIDTH 6 0
BBX 5 18 0 0
BITMAP
E0
70
30
18
00
00
78
78
78
78
78
78
78
78
78
78
78
78
ENDCHAR
STARTCHAR 00ED
ENCODING 237
SWIDTH 240 0
DWIDTH 6 0
BBX 5 18 1 0
BITMAP
38
30
60
60
00
00
F0
F0
F0
F0
F0
F0
F0
F0
F0
F0
F0
F0
ENDCHAR
STARTCHAR 00EE
ENCODING 238
SWIDTH 240 0
DWIDTH 6 0
BBX 7 18 0 0
BITMAP
78
7C
CC
C6
00
00
78
78
78
78
78
78
78
78
78
78
78
78
ENDCHAR
STARTCHAR 00EF
ENCODING 239
SWIDTH 240 0
DWIDTH 6 0
BBX 8 17 -1 1
BITMAP
E7
F7
02
00
00
3C
3C
3C
3C
3C
3C
3C
3C
3C
3C
3C
3C
ENDCHAR
STARTCHAR 00F0
ENCODING 240
SWIDTH 520 0
DWIDTH 13 0
BBX 12 17 1 0
BITMAP
1D80
1FC0
3F00
3F00
0780
1BC0
3BC0
7DE0
FFE0
F0F0
F0F0
F0F0
F0F0
FFE0
7FE0
7FC0
1F80
ENDCHAR
STARTCHAR 00F1
ENCODING 241
SWIDTH 520 0
DWIDTH 13 0
BBX 11 18 1 0
BITMAP
00C0
1F80
3F80
2000
0000
0400
3F80
7FC0
7FE0
F9E0
F1E0
F1E0
F1E0
F1E0
F1E0
F1E0
F1E0
F1E0
ENDCHAR
STARTCHAR 00F2
ENCODING 242
SWIDTH 520 0
DWIDTH 13 0
BBX 12 18 1 0
BITMAP
1C00
0C00
0600
0600
0000
0600
3F80
7FE0
FFE0
F9F0
F0F0
F0F0
F0F0
F0F0
FFF0
7FE0
3FC0
1F80
ENDCHAR
STARTCHAR 00F3
ENCODING 243
SWIDTH 520 0
DWIDTH 13 0
BBX 12 18 1 0
BITMAP
0380
0700
0600
0C00
0000
0600
3F80
7FE0
FFE0
F9F0
F0F0
F0F0
F0F0
F0F0
FFF0
7FE0
3FC0
1F80
ENDCHAR
STARTCHAR 00F4
ENCODING 244
SWIDTH 520 0
DWIDTH 13 0
BBX 12 18 1 0
BITMAP
0F00
1F00
1980
3180
0000
0600
3F80
7FE0
FFE0
F9F0
F0F0
F0F0
F0F0
F0F0
FFF0
7FE0
3FC0
1F80
ENDCHAR
STARTCHAR 00F5
ENCODING 245
SWIDTH 520 0
DWIDTH 13 0
BBX 12 18 1 0
BITMAP
00C0
1F80
3F80
2000
0000
0600
3F80
7FE0
FFE0
F9F0
F0F0
F0F0
F0F0
F0F0
FFF0
7FE0
3FC0
1F80
ENDCHAR
STARTCHAR 00F6
ENCODING 246
SWIDTH 520 0
DWIDTH 13 0
BBX 12 18 1 0
BITMAP
0080
39C0
39C0
0000
0000
0600
3F80
7FE0
FFE0
F9F0
F0F0
F0F0
F0F0
F0F0
FFF0
7FE0
3FC0
1F80
ENDCHAR
STARTCHAR 00F7
ENCODING 247
SWIDTH 800 0
DWIDTH 20 0
BBX 15 13 3 0
BITMAP
0380
0780
0380
0100
0000
FFFE
FFFE
FFFE
0000
0100
0380
0780
0380
ENDCHAR
STARTCHAR 00F8
ENCODING 248
SWIDTH 520 0
DWIDTH 13 0
BBX 12 15 1 -1
BITMAP
0020
0630
3FF0
7FE0
FFE0
F3F0
F3F0
E6F0
FEF0
FCF0
FFF0
7FE0
FFC0
FF80
C000
ENDCHAR
STARTCHAR 00F9
ENCODING 249
SWIDTH 520 0
DWIDTH 13 0
BBX 11 18 1 0
BITMAP
1C00
0C00
0E00
0600
0000
0000
F1E0
F1E0
F1E0
F1E0
F1E0
F1E0
F1E0
F1E0
FFE0
7FE0
3FC0
1F80
ENDCHAR
STARTCHAR 00FA
ENCODING 250
SWIDTH 520 0
DWIDTH 13 0
BBX 11 18 1 0
BITMAP
0380
0700
0600
0C00
0000
0000
F1E0
F1E0
F1E0
F1E0
F1E0
F1E0
F1E0
F1E0
FFE0
7FE0
3FC0
1F80
ENDCHAR
STARTCHAR 00FB
ENCODING 251
SWIDTH 520 0
DWIDTH 13 0
BBX 11 18 1 0
BITMAP
0F00
1F00
1B80
3180
0000
0000
F1E0
F1E0
F1E0
F1E0
F1E0
F1E0
F1E0
F1E0
FFE0
7FE0
3FC0
1F80
ENDCHAR
STARTCHAR 00FC
ENCODING 252
SWIDTH 520 0
DWIDTH 13 0
BBX 11 18 1 0
BITMAP
1000
3B80
3B80
1000
0000
0000
F1E0
F1E0
F1E0
F1E0
F1E0
F1E0
F1E0
F1E0
FFE0
7FE0
3FC0
1F80
ENDCHAR
STARTCHAR 00FD
ENCODING 253
SWIDTH 520 0
DWIDTH 13 0
BBX 11 23 1 -5
BITMAP
0380
0700
0600
0C00
0000
0000
F1E0
F1E0
F1E0
F1E0
F1E0
F1E0
F1E0
F1E0
FBE0
7FE0
7FC0
1F80
0F00
0F00
0F00
0F00
0F00
ENDCHAR
STARTCHAR 00FE
ENCODING 254
SWIDTH 560 0
DWIDTH 14 0
BBX 12 22 1 -5
BITMAP
F000
F000
F000
F000
F600
FFC0
FFE0
FFF0
F9F0
F0F0
F0F0
F0F0
F0F0
FFF0
FFE0
FFE0
FF80
F000
F000
F000
F000
F000
ENDCHAR
STARTCHAR 00FF
ENCODING 255
SWIDTH 520 0
DWIDTH 13 0
BBX 11 23 1 -5
BITMAP
1000
3B80
3B80
1000
0000
0000
F1E0
F1E0
F1E0
F1E0
F1E0
F1E0
F1E0
F1E0
FBE0
7FE0
7FC0
1F80
0F00
0F00
0F00
0F00
0F00
ENDCHAR
STARTCHAR 0102
ENCODING 258
SWIDTH 600 0
DWIDTH 15 0
BBX 13 23 1 0
BITMAP
1860
1840
0FC0
0F80
0000
0780
1FE0
3FF0
7FF8
7FF8
F878
F878
F7F8
F7F8
F7F8
F7F8
F7F8
F078
F078
F078
F078
F078
F078
ENDCHAR
STARTCHAR 0103
ENCODING 259
SWIDTH 560 0
DWIDTH 14 0
BBX 12 18 1 0
BITMAP
30C0
10C0
1F80
0F00
0000
0E00
3F80
7FE0
FFE0
F9F0
F0F0
F0F0
F0F0
F0F0
FFF0
7FF0
7FF0
1FF0
ENDCHAR
STARTCHAR 0106
ENCODING 262
SWIDTH 480 0
DWIDTH 12 0
BBX 11 24 1 0
BITMAP
00E0
01C0
0180
0300
0600
0000
0000
07E0
1FE0
3FE0
7FE0
FC00
F800
F000
F000
F000
F000
F800
F800
7E00
7FE0
3FE0
0FE0
03E0
ENDCHAR
STARTCHAR 0107
ENCODING 263
SWIDTH 360 0
DWIDTH 9 0
BBX 8 18 1 0
BITMAP
07
06
0E
0C
00
00
1F
7F
7F
FC
F0
F0
F0
F0
FF
7F
3F
0F
ENDCHAR
STARTCHAR 010C
ENCODING 268
SWIDTH 480 0
DWIDTH 12 0
BBX 11 24 1 0
BITMAP
1860
0CE0
06C0
0780
0380
0000
0000
07E0
1FE0
3FE0
7FE0
FC00
F800
F000
F000
F000
F000
F800
F800
7E00
7FE0
3FE0
0FE0
03E0
ENDCHAR
STARTCHAR 010D
ENCODING 269
SWIDTH 360 0
DWIDTH 9 0
BBX 9 18 1 0
BITMAP
3180
3B00
1F00
1E00
0000
0000
1F00
7F00
7F00
FC00
F000
F000
F000
F000
FF00
7F00
3F00
0F00
ENDCHAR
STARTCHAR 0110
ENCODING 272
SWIDTH 640 0
DWIDTH 16 0
BBX 15 17 0 0
BITMAP
7FE0
7FF0
7FF8
7FFC
7C7E
7C3E
7C1E
FF1E
FF1E
7C1E
7C3E
7C3E
7CFC
7FFC
7FF8
7FF0
7FC0
ENDCHAR
STARTCHAR 0111
ENCODING 273
SWIDTH 560 0
DWIDTH 14 0
BBX 13 17 1 0
BITMAP
00F0
07F8
07F8
00F0
04F0
3FF0
7FF0
FFF0
F9F0
F0F0
F0F0
F0F0
F0F0
FFE0
7FE0
7FC0
1F80
ENDCHAR
STARTCHAR 011E
ENCODING 286
SWIDTH 760 0
DWIDTH 19 0
BBX 18 23 1 0
BITMAP
061000
077000
03E000
000000
000000
01E000
0FFC00
1FFE00
3FFE00
7F7C00
FC0800
F80000
F0FFC0
F0FFC0
F0FFC0
F0FF80
F80780
F80F80
7E1F00
7FFF00
3FFE00
1FFC00
07F800
ENDCHAR
STARTCHAR 011F
ENCODING 287
SWIDTH 560 0
DWIDTH 14 0
BBX 12 24 1 -6
BITMAP
30C0
30C0
1F80
0F00
0000
0600
3F80
7FE0
FFE0
F9F0
F0F0
F0F0
F0F0
F0F0
FFF0
7FF0
3FF0
1FF0
00F0
41F0
7FE0
7FE0
7FC0
0400
ENDCHAR
STARTCHAR 0128
ENCODING 296
SWIDTH 280 0
DWIDTH 7 0
BBX 7 23 0 0
BITMAP
22
FE
DC
00
00
00
7C
7C
7C
7C
7C
7C
7C
7C
7C
7C
7C
7C
7C
7C
7C
7C
7C
ENDCHAR
STARTCHAR 0129
ENCODING 297
SWIDTH 240 0
DWIDTH 6 0
BBX 8 18 -1 0
BITMAP
01
7F
7E
C0
00
00
3C
3C
3C
3C
3C
3C
3C
3C
3C
3C
3C
3C
ENDCHAR
STARTCHAR 0130
ENCODING 304
SWIDTH 280 0
DWIDTH 7 0
BBX 5 23 1 0
BITMAP
70
70
70
00
00
00
F8
F8
F8
F8
F8
F8
F8
F8
F8
F8
F8
F8
F8
F8
F8
F8
F8
ENDCHAR
STARTCHAR 0131
ENCODING 305
SWIDTH 240 0
DWIDTH 6 0
BBX 4 12 1 0
BITMAP
F0
F0
F0
F0
F0
F0
F0
F0
F0
F0
F0
F0
ENDCHAR
STARTCHAR 0141
ENCODING 321
SWIDTH 440 0
DWIDTH 11 0
BBX 11 17 0 0
BITMAP
7C00
7C00
7C00
7C00
7D00
7F00
7F00
7E00
FC00
FC00
FC00
7C00
7C00
3FE0
3FE0
1FE0
0FE0
ENDCHAR
STARTCHAR 0142
ENCODING 322
SWIDTH 240 0
DWIDTH 6 0
BBX 7 17 0 0
BITMAP
78
78
78
78
78
7E
7E
7C
F8
F8
F8
78
78
78
78
78
78
ENDCHAR
STARTCHAR 0152
ENCODING 338
SWIDTH 1040 0
DWIDTH 26 0
BBX 24 18 1 0
BITMAP
03E000
0FF83F
1FFCFF
3FFFFF
7FFFFF
FC1FE0
F80FC0
F007FF
F007FF
F007FF
F007FF
F80780
F80FC0
7E1FF0
7FFFFF
3FFFFF
1FFC7F
07F01F
ENDCHAR
STARTCHAR 0153
ENCODING 339
SWIDTH 880 0
DWIDTH 22 0
BBX 21 13 1 0
BITMAP
040200
3F9FC0
7FFFE0
FFFDF0
F9F9F0
F0F3C0
F0F780
F0F320
F0F878
FFFFF8
7FFFF0
3FFFE0
1F8FC0
ENDCHAR
STARTCHAR 015E
ENCODING 350
SWIDTH 520 0
DWIDTH 13 0
BBX 12 23 1 -6
BITMAP
3FE0
7FE0
FFE0
FFE0
F000
F800
FE00
7F80
3FC0
0FE0
03E0
01F0
01F0
FFE0
FFE0
FFC0
FF80
0600
0700
0780
0180
1F80
0F00
ENDCHAR
STARTCHAR 015F
ENCODING 351
SWIDTH 400 0
DWIDTH 10 0
BBX 9 18 1 -6
BITMAP
7F80
FF80
FF80
F000
FC00
7F00
3F80
0780
FF80
FF80
FF80
FE00
0800
0E00
0F00
0300
3F00
3E00
ENDCHAR
STARTCHAR 0160
ENCODING 352
SWIDTH 520 0
DWIDTH 13 0
BBX 12 24 1 0
BITMAP
30C0
3180
1B00
0F00
0E00
0000
0000
3FE0
7FE0
FFE0
FFE0
F000
F800
FE00
7F80
3FC0
0FE0
03E0
01F0
01F0
FFE0
FFE0
FFC0
FF80
ENDCHAR
STARTCHAR 0161
ENCODING 353
SWIDTH 400 0
DWIDTH 10 0
BBX 9 18 1 0
BITMAP
6300
3600
3E00
1C00
0000
0000
7F80
FF80
FF80
F000
FC00
7F00
3F80
0780
FF80
FF80
FF80
FE00
ENDCHAR
STARTCHAR 0168
ENCODING 360
SWIDTH 600 0
DWIDTH 15 0
BBX 13 23 1 0
BITMAP
0440
1FC0
1B80
0000
0000
0000
F078
F078
F078
F078
F078
F078
F078
F078
F078
F078
F078
F878
F8F8
7FF8
7FF0
3FE0
1FC0
ENDCHAR
STARTCHAR 0169
ENCODING 361
SWIDTH 520 0
DWIDTH 13 0
BBX 11 18 1 0
BITMAP
00C0
1F80
3F80
2000
0000
0000
F1E0
F1E0
F1E0
F1E0
F1E0
F1E0
F1E0
F1E0
FFE0
7FE0
3FC0
1F80
ENDCHAR
STARTCHAR 0178
ENCODING 376
SWIDTH 560 0
DWIDTH 14 0
BBX 12 23 1 0
BITMAP
1980
3DC0
19C0
0000
0000
0000
F0F0
F0F0
F0F0
F0F0
F0F0
F0F0
F8F0
FFF0
7FE0
3FC0
1F80
0F00
0F00
0F00
0F00
0F00
0F00
ENDCHAR
STARTCHAR 017D
ENCODING 381
SWIDTH 520 0
DWIDTH 13 0
BBX 13 24 0 0
BITMAP
1840
18C0
0D80
0F80
0700
0000
0000
7FF0
7FF8
7FF8
7FF8
01F0
03E0
07E0
07C0
0F80
1F00
3F00
3E00
7C00
FFF8
FFF8
FFF8
7FF8
ENDCHAR
STARTCHAR 017E
ENCODING 382
SWIDTH 440 0
DWIDTH 11 0
BBX 11 18 0 0
BITMAP
3180
1B80
1F00
0F00
0000
0000
7FC0
7FE0
7FE0
07C0
0F80
1F00
1F00
3E00
7FE0
FFE0
FFE0
7FE0
ENDCHAR
STARTCHAR 0192
ENCODING 402
SWIDTH 560 0
DWIDTH 14 0
BBX 13 22 0 -5
BITMAP
01F8
03F8
03F8
03C0
03C0
07C0
3FF8
3FF8
3FF8
3FF8
0780
0780
0F80
0F00
0F00
0F00
0F00
0F00
1F00
FF00
FE00
FC00
ENDCHAR
STARTCHAR 01A0
ENCODING 416
SWIDTH 760 0
DWIDTH 19 0
BBX 18 19 1 0
BITMAP
0001C0
03E380
0FFB80
1FFF00
3FFF00
7FFF00
FC1F80
F80F80
F00780
F007C0
F007C0
F007C0
F80780
F80F80
7E1F80
7FFF00
3FFE00
1FFC00
07F000
ENDCHAR
STARTCHAR 01A1
ENCODING 417
SWIDTH 520 0
DWIDTH 13 0
BBX 13 14 1 0
BITMAP
0038
0638
3FF0
7FF0
FFE0
F9F0
F0F0
F0F0
F0F0
F0F0
FFF0
7FE0
3FC0
1F80
ENDCHAR
STARTCHAR 01AF
ENCODING 431
SWIDTH 640 0
DWIDTH 16 0
BBX 17 19 1 0
BITMAP
000780
000700
F07F00
F07E00
F07E00
F07C00
F07800
F07800
F07800
F07800
F07800
F07800
F07800
F87800
F8F800
7FF800
7FF000
3FE000
1FC000
ENDCHAR
STARTCHAR 01B0
ENCODING 432
SWIDTH 560 0
DWIDTH 14 0
BBX 14 14 1 0
BITMAP
001C
001C
F1F8
F1F8
F1F0
F1E0
F1E0
F1E0
F1E0
F1E0
FFE0
7FE0
3FC0
1F80
ENDCHAR
STARTCHAR 02C6
ENCODING 710
SWIDTH 480 0
DWIDTH 12 0
BBX 7 4 3 14
BITMAP
78
7C
EC
C6
ENDCHAR
STARTCHAR 02C7
ENCODING 711
SWIDTH 480 0
DWIDTH 12 0
BBX 7 4 3 14
BITMAP
C6
EC
7C
78
ENDCHAR
STARTCHAR 02C9
ENCODING 713
SWIDTH 480 0
DWIDTH 12 0
BBX 7 2 3 15
BITMAP
FE
FE
ENDCHAR
STARTCHAR 02D8
ENCODING 728
SWIDTH 480 0
DWIDTH 12 0
BBX 7 4 3 14
BITMAP
86
C6
FC
78
ENDCHAR
STARTCHAR 02D9
ENCODING 729
SWIDTH 480 0
DWIDTH 12 0
BBX 3 3 5 15
BITMAP
40
E0
E0
ENDCHAR
STARTCHAR 02DA
ENCODING 730
SWIDTH 480 0
DWIDTH 12 0
BBX 6 6 3 14
BITMAP
78
FC
C4
C4
FC
78
ENDCHAR
STARTCHAR 02DB
ENCODING 731
SWIDTH 480 0
DWIDTH 12 0
BBX 4 6 4 -6
BITMAP
20
40
C0
F0
F0
30
ENDCHAR
STARTCHAR 02DC
ENCODING 732
SWIDTH 480 0
DWIDTH 12 0
BBX 8 4 2 14
BITMAP
01
7F
7E
C0
ENDCHAR
STARTCHAR 02DD
ENCODING 733
SWIDTH 480 0
DWIDTH 12 0
BBX 8 5 4 14
BITMAP
77
6E
CC
D8
98
ENDCHAR
STARTCHAR 0394
ENCODING 916
SWIDTH 680 0
DWIDTH 17 0
BBX 18 18 0 0
BITMAP
03F000
03F000
03F000
07F800
07F800
07F800
0F7C00
0F3C00
1F3C00
1E3E00
1E1E00
3E1F00
3C1F00
3C0F00
7C0F80
7FFF80
7FFF80
FFFFC0
ENDCHAR
STARTCHAR 03A9
ENCODING 937
SWIDTH 800 0
DWIDTH 20 0
BBX 19 18 1 0
BITMAP
07F800
1FFE00
3FFF00
7FFF80
7C0F80
7C0F80
F807C0
F807C0
F807C0
F807C0
780780
7C0F80
3C0F00
1E1E00
FE1FE0
FE1FE0
FE1FE0
FE1FE0
ENDCHAR
STARTCHAR 03BC
ENCODING 956
SWIDTH 640 0
DWIDTH 16 0
BBX 15 18 0 -5
BITMAP
3E1E
3C1E
3C1E
3C3E
3C3E
7C3C
7C3C
7C3C
7C7C
7C7C
7FFC
FFFC
FFF8
F000
F000
F000
F000
F000
ENDCHAR
STARTCHAR 03C0
ENCODING 960
SWIDTH 720 0
DWIDTH 18 0
BBX 19 13 0 0
BITMAP
3FFFE0
7FFFC0
FFFFC0
EF8F00
0F9F00
0F1F00
0F1F00
0F1E00
0F1E00
1F1E00
1F3E00
1F3E00
1E3E00
ENDCHAR
STARTCHAR 1EA0
ENCODING 7840
SWIDTH 600 0
DWIDTH 15 0
BBX 13 25 1 -7
BITMAP
0780
1FE0
3FF0
7FF8
7FF8
F878
F878
F7F8
F7F8
F7F8
F7F8
F7F8
F078
F078
F078
F078
F078
F078
0000
0000
0780
0F80
0F80
0780
0300
ENDCHAR
STARTCHAR 1EA1
ENCODING 7841
SWIDTH 560 0
DWIDTH 14 0
BBX 12 20 1 -7
BITMAP
0E00
3F80
7FE0
FFE0
F9F0
F0F0
F0F0
F0F0
F0F0
FFF0
7FF0
7FF0
1FF0
0000
0000
0F00
0F00
0F00
0F00
0600
ENDCHAR
STARTCHAR 1EA2
ENCODING 7842
SWIDTH 600 0
DWIDTH 15 0
BBX 13 24 1 0
BITMAP
0780
0780
04C0
0380
0300
0200
0780
1FE0
3FF0
7FF8
7FF8
F878
F878
F7F8
F7F8
F7F8
F7F8
F7F8
F078
F078
F078
F078
F078
F078
ENDCHAR
STARTCHAR 1EA3
ENCODING 7843
SWIDTH 560 0
DWIDTH 14 0
BBX 12 19 1 0
BITMAP
0F00
0D00
0180
0700
0600
0000
0E00
3F80
7FE0
FFE0
F9F0
F0F0
F0F0
F0F0
F0F0
FFF0
7FF0
7FF0
1FF0
ENDCHAR
STARTCHAR 1EA4
ENCODING 7844
SWIDTH 600 0
DWIDTH 15 0
BBX 13 28 1 0
BITMAP
0380
0700
0600
0C00
0800
0780
0780
0DC0
0CC0
1860
0780
1FE0
3FF0
7FF8
7FF8
F878
F878
F7F8
F7F8
F7F8
F7F8
F7F8
F078
F078
F078
F078
F078
F078
ENDCHAR
STARTCHAR 1EA5
ENCODING 7845
SWIDTH 560 0
DWIDTH 14 0
BBX 12 23 1 0
BITMAP
0700
0E00
0C00
1800
0000
0F00
0F00
1980
1080
0000
0E00
3F80
7FE0
FFE0
F9F0
F0F0
F0F0
F0F0
F0F0
FFF0
7FF0
7FF0
1FF0
ENDCHAR
STARTCHAR 1EA6
ENCODING 7846
SWIDTH 600 0
DWIDTH 15 0
BBX 13 28 1 0
BITMAP
0700
0300
0180
0180
00C0
0780
0780
0DC0
0CC0
1860
0780
1FE0
3FF0
7FF8
7FF8
F878
F878
F7F8
F7F8
F7F8
F7F8
F7F8
F078
F078
F078
F078
F078
F078
ENDCHAR
STARTCHAR 1EA7
ENCODING 7847
SWIDTH 560 0
DWIDTH 14 0
BBX 12 23 1 0
BITMAP
0E00
0700
0300
0180
0000
0F00
0F00
1980
1080
0000
0E00
3F80
7FE0
FFE0
F9F0
F0F0
F0F0
F0F0
F0F0
FFF0
7FF0
7FF0
1FF0
ENDCHAR
STARTCHAR 1EA8
ENCODING 7848
SWIDTH 600 0
DWIDTH 15 0
BBX 13 28 1 0
BITMAP
0070
00F8
0018
0070
0060
0780
0780
0DC0
0CC0
1860
0780
1FE0
3FF0
7FF8
7FF8
F878
F878
F7F8
F7F8
F7F8
F7F8
F7F8
F078
F078
F078
F078
F078
F078
ENDCHAR
STARTCHAR 1EA9
ENCODING 7849
SWIDTH 560 0
DWIDTH 14 0
BBX 12 23 1 0
BITMAP
01E0
01B0
0030
0060
0040
0F00
0F00
1980
1080
0000
0E00
3F80
7FE0
FFE0
F9F0
F0F0
F0F0
F0F0
F0F0
FFF0
7FF0
7FF0
1FF0
ENDCHAR
STARTCHAR 1EAA
ENCODING 7850
SWIDTH 600 0
DWIDTH 15 0
BBX 13 27 1 0
BITMAP
0620
0FE0
09C0
0000
0780
0780
0DC0
0CC0
1860
0780
1FE0
3FF0
7FF8
7FF8
F878
F878
F7F8
F7F8
F7F8
F7F8
F7F8
F078
F078
F078
F078
F078
F078
ENDCHAR
STARTCHAR 1EAB
ENCODING 7851
SWIDTH 560 0
DWIDTH 14 0
BBX 12 22 1 0
BITMAP
0F40
1FC0
1000
0000
0F00
0F00
1980
1080
0000
0E00
3F80
7FE0
FFE0
F9F0
F0F0
F0F0
F0F0
F0F0
FFF0
7FF0
7FF0
1FF0
ENDCHAR
STARTCHAR 1EAC
ENCODING 7852
SWIDTH 600 0
DWIDTH 15 0
BBX 13 30 1 -7
BITMAP
0780
0780
0DC0
0CC0
1860
0780
1FE0
3FF0
7FF8
7FF8
F878
F878
F7F8
F7F8
F7F8
F7F8
F7F8
F078
F078
F078
F078
F078
F078
0000
0000
0780
0F80
0F80
0780
0300
ENDCHAR
STARTCHAR 1EAD
ENCODING 7853
SWIDTH 560 0
DWIDTH 14 0
BBX 12 25 1 -7
BITMAP
0F00
0F00
1980
1080
0000
0E00
3F80
7FE0
FFE0
F9F0
F0F0
F0F0
F0F0
F0F0
FFF0
7FF0
7FF0
1FF0
0000
0000
0F00
0F00
0F00
0F00
0600
ENDCHAR
STARTCHAR 1EAE
ENCODING 7854
SWIDTH 600 0
DWIDTH 15 0
BBX 13 28 1 0
BITMAP
01C0
0380
0300
0600
0600
1860
1840
0FC0
0F80
0000
0780
1FE0
3FF0
7FF8
7FF8
F878
F878
F7F8
F7F8
F7F8
F7F8
F7F8
F078
F078
F078
F078
F078
F078
ENDCHAR
STARTCHAR 1EAF
ENCODING 7855
SWIDTH 560 0
DWIDTH 14 0
BBX 12 23 1 0
BITMAP
0380
0700
0600
0C00
0000
30C0
10C0
1F80
0F00
0000
0E00
3F80
7FE0
FFE0
F9F0
F0F0
F0F0
F0F0
F0F0
FFF0
7FF0
7FF0
1FF0
ENDCHAR
STARTCHAR 1EB0
ENCODING 7856
SWIDTH 600 0
DWIDTH 15 0
BBX 13 28 1 0
BITMAP
0E00
0E00
0700
0300
0180
1860
1840
0FC0
0F80
0000
0780
1FE0
3FF0
7FF8
7FF8
F878
F878
F7F8
F7F8
F7F8
F7F8
F7F8
F078
F078
F078
F078
F078
F078
ENDCHAR
STARTCHAR 1EB1
ENCODING 7857
SWIDTH 560 0
DWIDTH 14 0
BBX 12 23 1 0
BITMAP
1C00
0E00
0600
0300
0000
30C0
10C0
1F80
0F00
0000
0E00
3F80
7FE0
FFE0
F9F0
F0F0
F0F0
F0F0
F0F0
FFF0
7FF0
7FF0
1FF0
ENDCHAR
STARTCHAR 1EB2
ENCODING 7858
SWIDTH 600 0
DWIDTH 15 0
BBX 13 28 1 0
BITMAP
0700
0780
0080
0380
0300
1860
1840
0FC0
0F80
0000
0780
1FE0
3FF0
7FF8
7FF8
F878
F878
F7F8
F7F8
F7F8
F7F8
F7F8
F078
F078
F078
F078
F078
F078
ENDCHAR
STARTCHAR 1EB3
ENCODING 7859
SWIDTH 560 0
DWIDTH 14 0
BBX 12 23 1 0
BITMAP
0F00
0980
0180
0700
0600
30C0
10C0
1F80
0F00
0000
0E00
3F80
7FE0
FFE0
F9F0
F0F0
F0F0
F0F0
F0F0
FFF0
7FF0
7FF0
1FF0
ENDCHAR
STARTCHAR 1EB4
ENCODING 7860
SWIDTH 600 0
DWIDTH 15 0
BBX 13 27 1 0
BITMAP
0460
0FC0
1BC0
0000
1860
1840
0FC0
0F80
0000
0780
1FE0
3FF0
7FF8
7FF8
F878
F878
F7F8
F7F8
F7F8
F7F8
F7F8
F078
F078
F078
F078
F078
F078
ENDCHAR
STARTCHAR 1EB5
ENCODING 7861
SWIDTH 560 0
DWIDTH 14 0
BBX 12 22 1 0
BITMAP
0EC0
1F80
3100
0000
30C0
10C0
1F80
0F00
0000
0E00
3F80
7FE0
FFE0
F9F0
F0F0
F0F0
F0F0
F0F0
FFF0
7FF0
7FF0
1FF0
ENDCHAR
STARTCHAR 1EB6
ENCODING 7862
SWIDTH 600 0
DWIDTH 15 0
BBX 13 30 1 -7
BITMAP
1860
1840
0FC0
0F80
0000
0780
1FE0
3FF0
7FF8
7FF8
F878
F878
F7F8
F7F8
F7F8
F7F8
F7F8
F078
F078
F078
F078
F078
F078
0000
0000
0780
0F80
0F80
0780
0300
ENDCHAR
STARTCHAR 1EB7
ENCODING 7863
SWIDTH 560 0
DWIDTH 14 0
BBX 12 25 1 -7
BITMAP
30C0
10C0
1F80
0F00
0000
0E00
3F80
7FE0
FFE0
F9F0
F0F0
F0F0
F0F0
F0F0
FFF0
7FF0
7FF0
1FF0
0000
0000
0F00
0F00
0F00
0F00
0600
ENDCHAR
STARTCHAR 1EB8
ENCODING 7864
SWIDTH 520 0
DWIDTH 13 0
BBX 11 24 1 -7
BITMAP
07E0
1FE0
3FE0
7FC0
FC00
F800
FFE0
FFE0
FFE0
FFE0
F800
F800
7E00
7FE0
3FE0
0FE0
03E0
0000
0000
0780
07C0
07C0
0780
0300
ENDCHAR
STARTCHAR 1EB9
ENCODING 7865
SWIDTH 520 0
DWIDTH 13 0
BBX 13 20 1 -7
BITMAP
0600
3F80
7FE0
FFE0
F1E0
E7C0
EF00
F660
F078
FFF0
7FE0
3FC0
1F80
0000
0000
0F00
1F00
1F00
0F00
0400
ENDCHAR
STARTCHAR 1EBA
ENCODING 7866
SWIDTH 520 0
DWIDTH 13 0
BBX 11 24 1 0
BITMAP
01C0
03E0
0160
00E0
00C0
0080
0000
07E0
1FE0
3FE0
7FC0
FC00
F800
FFE0
FFE0
FFE0
FFE0
F800
F800
7E00
7FE0
3FE0
0FE0
03E0
ENDCHAR
STARTCHAR 1EBB
ENCODING 7867
SWIDTH 520 0
DWIDTH 13 0
BBX 13 19 1 0
BITMAP
0F00
0D00
0180
0700
0600
0000
0600
3F80
7FE0
FFE0
F1E0
E7C0
EF00
F660
F078
FFF0
7FE0
3FC0
1F80
ENDCHAR
STARTCHAR 1EBC
ENCODING 7868
SWIDTH 520 0
DWIDTH 13 0
BBX 11 23 1 0
BITMAP
0220
0FE0
0DC0
0000
0000
0000
07E0
1FE0
3FE0
7FC0
FC00
F800
FFE0
FFE0
FFE0
FFE0
F800
F800
7E00
7FE0
3FE0
0FE0
03E0
ENDCHAR
STARTCHAR 1EBD
ENCODING 7869
SWIDTH 520 0
DWIDTH 13 0
BBX 13 18 1 0
BITMAP
00C0
1F80
3F80
2000
0000
0600
3F80
7FE0
FFE0
F1E0
E7C0
EF00
F660
F078
FFF0
7FE0
3FC0
1F80
ENDCHAR
STARTCHAR 1EBE
ENCODING 7870
SWIDTH 520 0
DWIDTH 13 0
BBX 11 28 1 0
BITMAP
0380
0300
0600
0600
0C00
0780
0780
0EC0
0C60
1860
0000
07E0
1FE0
3FE0
7FC0
FC00
F800
FFE0
FFE0
FFE0
FFE0
F800
F800
7E00
7FE0
3FE0
0FE0
03E0
ENDCHAR
STARTCHAR 1EBF
ENCODING 7871
SWIDTH 520 0
DWIDTH 13 0
BBX 13 23 1 0
BITMAP
0700
0E00
0C00
1800
0000
0F00
0F00
1980
3180
0000
0600
3F80
7FE0
FFE0
F1E0
E7C0
EF00
F660
F078
FFF0
7FE0
3FC0
1F80
ENDCHAR
STARTCHAR 1EC0
ENCODING 7872
SWIDTH 520 0
DWIDTH 13 0
BBX 11 28 1 0
BITMAP
0700
0380
0180
00C0
0040
0780
0780
0EC0
0C60
1860
0000
07E0
1FE0
3FE0
7FC0
FC00
F800
FFE0
FFE0
FFE0
FFE0
F800
F800
7E00
7FE0
3FE0
0FE0
03E0
ENDCHAR
STARTCHAR 1EC1
ENCODING 7873
SWIDTH 520 0
DWIDTH 13 0
BBX 13 23 1 0
BITMAP
0E00
0700
0300
0180
0000
0F00
0F00
1980
3180
0000
0600
3F80
7FE0
FFE0
F1E0
E7C0
EF00
F660
F078
FFF0
7FE0
3FC0
1F80
ENDCHAR
STARTCHAR 1EC2
ENCODING 7874
SWIDTH 520 0
DWIDTH 13 0
BBX 13 28 1 0
BITMAP
0070
00D8
0058
0038
0020
0780
0780
0EC0
0C60
1860
0000
07E0
1FE0
3FE0
7FC0
FC00
F800
FFE0
FFE0
FFE0
FFE0
F800
F800
7E00
7FE0
3FE0
0FE0
03E0
ENDCHAR
STARTCHAR 1EC3
ENCODING 7875
SWIDTH 520 0
DWIDTH 13 0
BBX 13 23 1 0
BITMAP
01E0
01B0
0030
0060
0040
0F00
0F00
1980
3180
0000
0600
3F80
7FE0
FFE0
F1E0
E7C0
EF00
F660
F078
FFF0
7FE0
3FC0
1F80
ENDCHAR
STARTCHAR 1EC4
ENCODING 7876
SWIDTH 520 0
DWIDTH 13 0
BBX 12 27 1 0
BITMAP
0330
07E0
0CC0
0000
0780
0780
0EC0
0C60
1860
0000
07E0
1FE0
3FE0
7FC0
FC00
F800
FFE0
FFE0
FFE0
FFE0
F800
F800
7E00
7FE0
3FE0
0FE0
03E0
ENDCHAR
STARTCHAR 1EC5
ENCODING 7877
SWIDTH 520 0
DWIDTH 13 0
BBX 13 22 1 0
BITMAP
0EC0
1FC0
1000
0000
0F00
0F00
1980
3180
0000
0600
3F80
7FE0
FFE0
F1E0
E7C0
EF00
F660
F078
FFF0
7FE0
3FC0
1F80
ENDCHAR
STARTCHAR 1EC6
ENCODING 7878
SWIDTH 520 0
DWIDTH 13 0
BBX 11 30 1 -7
BITMAP
0780
0780
0EC0
0C60
1860
0000
07E0
1FE0
3FE0
7FC0
FC00
F800
FFE0
FFE0
FFE0
FFE0
F800
F800
7E00
7FE0
3FE0
0FE0
03E0
0000
0000
0780
07C0
07C0
0780
0300
ENDCHAR
STARTCHAR 1EC7
ENCODING 7879
SWIDTH 520 0
DWIDTH 13 0
BBX 13 25 1 -7
BITMAP
0F00
0F00
1980
3180
0000
0600
3F80
7FE0
FFE0
F1E0
E7C0
EF00
F660
F078
FFF0
7FE0
3FC0
1F80
0000
0000
0F00
1F00
1F00
0F00
0400
ENDCHAR
STARTCHAR 1EC8
ENCODING 7880
SWIDTH 280 0
DWIDTH 7 0
BBX 5 24 1 0
BITMAP
70
F8
58
38
30
20
00
F8
F8
F8
F8
F8
F8
F8
F8
F8
F8
F8
F8
F8
F8
F8
F8
F8
ENDCHAR
STARTCHAR 1EC9
ENCODING 7881
SWIDTH 240 0
DWIDTH 6 0
BBX 5 19 1 0
BITMAP
70
D8
18
30
20
00
00
F0
F0
F0
F0
F0
F0
F0
F0
F0
F0
F0
F0
ENDCHAR
STARTCHAR 1ECA
ENCODING 7882
SWIDTH 280 0
DWIDTH 7 0
BBX 5 24 1 -7
BITMAP
F8
F8
F8
F8
F8
F8
F8
F8
F8
F8
F8
F8
F8
F8
F8
F8
F8
00
00
70
F8
F8
F8
20
ENDCHAR
STARTCHAR 1ECB
ENCODING 7883
SWIDTH 240 0
DWIDTH 6 0
BBX 5 25 1 -7
BITMAP
70
F0
F0
F0
00
00
F0
F0
F0
F0
F0
F0
F0
F0
F0
F0
F0
F0
00
00
F0
F8
F8
F0
20
ENDCHAR
STARTCHAR 1ECC
ENCODING 7884
SWIDTH 760 0
DWIDTH 19 0
BBX 18 25 1 -7
BITMAP
03E000
0FF800
1FFE00
3FFF00
7FFF00
FC1F80
F80F80
F00780
F007C0
F007C0
F007C0
F80780
F80F80
7E1F80
7FFF00
3FFE00
1FFC00
07F000
000000
000000
01E000
03E000
03E000
01E000
008000
ENDCHAR
STARTCHAR 1ECD
ENCODING 7885
SWIDTH 520 0
DWIDTH 13 0
BBX 12 20 1 -7
BITMAP
0600
3F80
7FE0
FFE0
F9F0
F0F0
F0F0
F0F0
F0F0
FFF0
7FE0
3FC0
1F80
0000
0000
0F00
1F00
1F00
0F00
0400
ENDCHAR
STARTCHAR 1ECE
ENCODING 7886
SWIDTH 760 0
DWIDTH 19 0
BBX 18 24 1 0
BITMAP
01C000
01E000
012000
00E000
00C000
008000
03E000
0FF800
1FFE00
3FFF00
7FFF00
FC1F80
F80F80
F00780
F007C0
F007C0
F007C0
F80780
F80F80
7E1F80
7FFF00
3FFE00
1FFC00
07F000
ENDCHAR
STARTCHAR 1ECF
ENCODING 7887
SWIDTH 520 0
DWIDTH 13 0
BBX 12 19 1 0
BITMAP
0F00
0D00
0180
0700
0600
0000
0600
3F80
7FE0
FFE0
F9F0
F0F0
F0F0
F0F0
F0F0
FFF0
7FE0
3FC0
1F80
ENDCHAR
STARTCHAR 1ED0
ENCODING 7888
SWIDTH 760 0
DWIDTH 19 0
BBX 18 28 1 0
BITMAP
00E000
01C000
018000
030000
060000
01C000
03E000
036000
063000
061800
03E000
0FF800
1FFE00
3FFF00
7FFF00
FC1F80
F80F80
F00780
F007C0
F007C0
F007C0
F80780
F80F80
7E1F80
7FFF00
3FFE00
1FFC00
07F000
ENDCHAR
STARTCHAR 1ED1
ENCODING 7889
SWIDTH 520 0
DWIDTH 13 0
BBX 12 23 1 0
BITMAP
0700
0E00
0C00
1800
0000
0F00
1F00
1980
3180
0000
0600
3F80
7FE0
FFE0
F9F0
F0F0
F0F0
F0F0
F0F0
FFF0
7FE0
3FC0
1F80
ENDCHAR
STARTCHAR 1ED2
ENCODING 7890
SWIDTH 760 0
DWIDTH 19 0
BBX 18 28 1 0
BITMAP
01C000
00C000
00E000
006000
003000
01C000
03E000
036000
063000
061800
03E000
0FF800
1FFE00
3FFF00
7FFF00
FC1F80
F80F80
F00780
F007C0
F007C0
F007C0
F80780
F80F80
7E1F80
7FFF00
3FFE00
1FFC00
07F000
ENDCHAR
STARTCHAR 1ED3
ENCODING 7891
SWIDTH 520 0
DWIDTH 13 0
BBX 12 23 1 0
BITMAP
0E00
0700
0300
0180
0000
0F00
1F00
1980
3180
0000
0600
3F80
7FE0
FFE0
F9F0
F0F0
F0F0
F0F0
F0F0
FFF0
7FE0
3FC0
1F80
ENDCHAR
STARTCHAR 1ED4
ENCODING 7892
SWIDTH 760 0
DWIDTH 19 0
BBX 18 28 1 0
BITMAP
003C00
003C00
000600
001C00
001800
01C000
03E000
036000
063000
061800
03E000
0FF800
1FFE00
3FFF00
7FFF00
FC1F80
F80F80
F00780
F007C0
F007C0
F007C0
F80780
F80F80
7E1F80
7FFF00
3FFE00
1FFC00
07F000
ENDCHAR
STARTCHAR 1ED5
ENCODING 7893
SWIDTH 520 0
DWIDTH 13 0
BBX 12 23 1 0
BITMAP
01E0
0130
0030
00E0
00C0
0F00
1F00
1980
3180
0000
0600
3F80
7FE0
FFE0
F9F0
F0F0
F0F0
F0F0
F0F0
FFF0
7FE0
3FC0
1F80
ENDCHAR
STARTCHAR 1ED6
ENCODING 7894
SWIDTH 760 0
DWIDTH 19 0
BBX 18 27 1 0
BITMAP
018800
03F800
027000
000000
01C000
03E000
036000
063000
061800
03E000
0FF800
1FFE00
3FFF00
7FFF00
FC1F80
F80F80
F00780
F007C0
F007C0
F007C0
F80780
F80F80
7E1F80
7FFF00
3FFE00
1FFC00
07F000
ENDCHAR
STARTCHAR 1ED7
ENCODING 7895
SWIDTH 520 0
DWIDTH 13 0
BBX 12 22 1 0
BITMAP
0EC0
1FC0
1000
0000
0F00
1F00
1980
3180
0000
0600
3F80
7FE0
FFE0
F9F0
F0F0
F0F0
F0F0
F0F0
FFF0
7FE0
3FC0
1F80
ENDCHAR
STARTCHAR 1ED8
ENCODING 7896
SWIDTH 760 0
DWIDTH 19 0
BBX 18 30 1 -7
BITMAP
01C000
03E000
036000
063000
061800
03E000
0FF800
1FFE00
3FFF00
7FFF00
FC1F80
F80F80
F00780
F007C0
F007C0
F007C0
F80780
F80F80
7E1F80
7FFF00
3FFE00
1FFC00
07F000
000000
000000
01E000
03E000
03E000
01E000
008000
ENDCHAR
STARTCHAR 1ED9
ENCODING 7897
SWIDTH 520 0
DWIDTH 13 0
BBX 12 25 1 -7
BITMAP
0F00
1F00
1980
3180
0000
0600
3F80
7FE0
FFE0
F9F0
F0F0
F0F0
F0F0
F0F0
FFF0
7FE0
3FC0
1F80
0000
0000
0F00
1F00
1F00
0F00
0400
ENDCHAR
STARTCHAR 1EDA
ENCODING 7898
SWIDTH 760 0
DWIDTH 19 0
BBX 18 24 1 0
BITMAP
007000
00E000
00C000
01C000
018000
0001C0
03E380
0FFB80
1FFF00
3FFF00
7FFF00
FC1F80
F80F80
F00780
F007C0
F007C0
F007C0
F80780
F80F80
7E1F80
7FFF00
3FFE00
1FFC00
07F000
ENDCHAR
STARTCHAR 1EDB
ENCODING 7899
SWIDTH 520 0
DWIDTH 13 0
BBX 13 18 1 0
BITMAP
0380
0700
0600
0C00
0038
0638
3FF0
7FF0
FFE0
F9F0
F0F0
F0F0
F0F0
F0F0
FFF0
7FE0
3FC0
1F80
ENDCHAR
STARTCHAR 1EDC
ENCODING 7900
SWIDTH 760 0
DWIDTH 19 0
BBX 18 24 1 0
BITMAP
070000
038000
018000
00C000
004000
0001C0
03E380
0FFB80
1FFF00
3FFF00
7FFF00
FC1F80
F80F80
F00780
F007C0
F007C0
F007C0
F80780
F80F80
7E1F80
7FFF00
3FFE00
1FFC00
07F000
ENDCHAR
STARTCHAR 1EDD
ENCODING 7901
SWIDTH 520 0
DWIDTH 13 0
BBX 13 18 1 0
BITMAP
1C00
0C00
0600
0600
0038
0638
3FF0
7FF0
FFE0
F9F0
F0F0
F0F0
F0F0
F0F0
FFF0
7FE0
3FC0
1F80
ENDCHAR
STARTCHAR 1EDE
ENCODING 7902
SWIDTH 760 0
DWIDTH 19 0
BBX 18 24 1 0
BITMAP
01C000
01E000
012000
00E000
00C000
0081C0
03E380
0FFB80
1FFF00
3FFF00
7FFF00
FC1F80
F80F80
F00780
F007C0
F007C0
F007C0
F80780
F80F80
7E1F80
7FFF00
3FFE00
1FFC00
07F000
ENDCHAR
STARTCHAR 1EDF
ENCODING 7903
SWIDTH 520 0
DWIDTH 13 0
BBX 13 19 1 0
BITMAP
0F00
0D00
0180
0700
0600
0038
0638
3FF0
7FF0
FFE0
F9F0
F0F0
F0F0
F0F0
F0F0
FFF0
7FE0
3FC0
1F80
ENDCHAR
STARTCHAR 1EE0
ENCODING 7904
SWIDTH 760 0
DWIDTH 19 0
BBX 18 23 1 0
BITMAP
011000
07F000
06E000
000000
0001C0
03E380
0FFB80
1FFF00
3FFF00
7FFF00
FC1F80
F80F80
F00780
F007C0
F007C0
F007C0
F80780
F80F80
7E1F80
7FFF00
3FFE00
1FFC00
07F000
ENDCHAR
STARTCHAR 1EE1
ENCODING 7905
SWIDTH 520 0
DWIDTH 13 0
BBX 13 18 1 0
BITMAP
00C0
1F80
3F80
2000
0038
0638
3FF0
7FF0
FFE0
F9F0
F0F0
F0F0
F0F0
F0F0
FFF0
7FE0
3FC0
1F80
ENDCHAR
STARTCHAR 1EE2
ENCODING 7906
SWIDTH 760 0
DWIDTH 19 0
BBX 18 26 1 -7
BITMAP
0001C0
03E380
0FFB80
1FFF00
3FFF00
7FFF00
FC1F80
F80F80
F00780
F007C0
F007C0
F007C0
F80780
F80F80
7E1F80
7FFF00
3FFE00
1FFC00
07F000
000000
000000
01E000
03E000
03E000
01E000
008000
ENDCHAR
STARTCHAR 1EE3
ENCODING 7907
SWIDTH 520 0
DWIDTH 13 0
BBX 13 21 1 -7
BITMAP
0038
0638
3FF0
7FF0
FFE0
F9F0
F0F0
F0F0
F0F0
F0F0
FFF0
7FE0
3FC0
1F80
0000
0000
0F00
1F00
1F00
0F00
0400
ENDCHAR
STARTCHAR 1EE4
ENCODING 7908
SWIDTH 600 0
DWIDTH 15 0
BBX 13 24 1 -7
BITMAP
F078
F078
F078
F078
F078
F078
F078
F078
F078
F078
F078
F878
F8F8
7FF8
7FF0
3FE0
1FC0
0000
0000
0780
0F80
0F80
0780
0300
ENDCHAR
STARTCHAR 1EE5
ENCODING 7909
SWIDTH 520 0
DWIDTH 13 0
BBX 11 19 1 -7
BITMAP
F1E0
F1E0
F1E0
F1E0
F1E0
F1E0
F1E0
F1E0
FFE0
7FE0
3FC0
1F80
0000
0000
0F00
1F00
1F00
0F00
0400
ENDCHAR
STARTCHAR 1EE6
ENCODING 7910
SWIDTH 600 0
DWIDTH 15 0
BBX 13 24 1 0
BITMAP
0700
0780
0480
0380
0300
0200
0000
F078
F078
F078
F078
F078
F078
F078
F078
F078
F078
F078
F878
F8F8
7FF8
7FF0
3FE0
1FC0
ENDCHAR
STARTCHAR 1EE7
ENCODING 7911
SWIDTH 520 0
DWIDTH 13 0
BBX 11 19 1 0
BITMAP
0E00
1B00
0100
0700
0400
0000
0000
F1E0
F1E0
F1E0
F1E0
F1E0
F1E0
F1E0
F1E0
FFE0
7FE0
3FC0
1F80
ENDCHAR
STARTCHAR 1EE8
ENCODING 7912
SWIDTH 640 0
DWIDTH 16 0
BBX 17 24 1 0
BITMAP
01C000
018000
038000
030000
060000
000780
000700
F07F00
F07E00
F07E00
F07C00
F07800
F07800
F07800
F07800
F07800
F07800
F07800
F87800
F8F800
7FF800
7FF000
3FE000
1FC000
ENDCHAR
STARTCHAR 1EE9
ENCODING 7913
SWIDTH 560 0
DWIDTH 14 0
BBX 14 18 1 0
BITMAP
0380
0700
0600
0C00
001C
001C
F1F8
F1F8
F1F0
F1E0
F1E0
F1E0
F1E0
F1E0
FFE0
7FE0
3FC0
1F80
ENDCHAR
STARTCHAR 1EEA
ENCODING 7914
SWIDTH 640 0
DWIDTH 16 0
BBX 17 24 1 0
BITMAP
1C0000
0E0000
070000
030000
018000
000780
000700
F07F00
F07E00
F07E00
F07C00
F07800
F07800
F07800
F07800
F07800
F07800
F07800
F87800
F8F800
7FF800
7FF000
3FE000
1FC000
ENDCHAR
STARTCHAR 1EEB
ENCODING 7915
SWIDTH 560 0
DWIDTH 14 0
BBX 14 18 1 0
BITMAP
1C00
0C00
0E00
0600
001C
001C
F1F8
F1F8
F1F0
F1E0
F1E0
F1E0
F1E0
F1E0
FFE0
7FE0
3FC0
1F80
ENDCHAR
STARTCHAR 1EEC
ENCODING 7916
SWIDTH 640 0
DWIDTH 16 0
BBX 17 24 1 0
BITMAP
070000
078000
048000
038000
030000
020780
000700
F07F00
F07E00
F07E00
F07C00
F07800
F07800
F07800
F07800
F07800
F07800
F07800
F87800
F8F800
7FF800
7FF000
3FE000
1FC000
ENDCHAR
STARTCHAR 1EED
ENCODING 7917
SWIDTH 560 0
DWIDTH 14 0
BBX 14 19 1 0
BITMAP
0E00
1B00
0100
0700
0400
001C
001C
F1F8
F1F8
F1F0
F1E0
F1E0
F1E0
F1E0
F1E0
FFE0
7FE0
3FC0
1F80
ENDCHAR
STARTCHAR 1EEE
ENCODING 7918
SWIDTH 640 0
DWIDTH 16 0
BBX 17 23 1 0
BITMAP
044000
1FC000
1B8000
000000
000780
000700
F07F00
F07E00
F07E00
F07C00
F07800
F07800
F07800
F07800
F07800
F07800
F07800
F87800
F8F800
7FF800
7FF000
3FE000
1FC000
ENDCHAR
STARTCHAR 1EEF
ENCODING 7919
SWIDTH 560 0
DWIDTH 14 0
BBX 14 18 1 0
BITMAP
00C0
1F80
3F80
2000
001C
001C
F1F8
F1F8
F1F0
F1E0
F1E0
F1E0
F1E0
F1E0
FFE0
7FE0
3FC0
1F80
ENDCHAR
STARTCHAR 1EF0
ENCODING 7920
SWIDTH 640 0
DWIDTH 16 0
BBX 17 26 1 -7
BITMAP
000780
000700
F07F00
F07E00
F07E00
F07C00
F07800
F07800
F07800
F07800
F07800
F07800
F07800
F87800
F8F800
7FF800
7FF000
3FE000
1FC000
000000
000000
078000
0F8000
0F8000
078000
030000
ENDCHAR
STARTCHAR 1EF1
ENCODING 7921
SWIDTH 560 0
DWIDTH 14 0
BBX 14 21 1 -7
BITMAP
001C
001C
F1F8
F1F8
F1F0
F1E0
F1E0
F1E0
F1E0
F1E0
FFE0
7FE0
3FC0
1F80
0000
0000
0F00
1F00
1F00
0F00
0400
ENDCHAR
STARTCHAR 1EF2
ENCODING 7922
SWIDTH 560 0
DWIDTH 14 0
BBX 12 24 1 0
BITMAP
3C00
1C00
0E00
0600
0300
0000
0000
F0F0
F0F0
F0F0
F0F0
F0F0
F0F0
F8F0
FFF0
7FE0
3FC0
1F80
0F00
0F00
0F00
0F00
0F00
0F00
ENDCHAR
STARTCHAR 1EF3
ENCODING 7923
SWIDTH 520 0
DWIDTH 13 0
BBX 11 23 1 -5
BITMAP
1C00
0C00
0E00
0600
0000
0000
F1E0
F1E0
F1E0
F1E0
F1E0
F1E0
F1E0
F1E0
FBE0
7FE0
7FC0
1F80
0F00
0F00
0F00
0F00
0F00
ENDCHAR
STARTCHAR 1EF4
ENCODING 7924
SWIDTH 560 0
DWIDTH 14 0
BBX 12 24 1 -7
BITMAP
F0F0
F0F0
F0F0
F0F0
F0F0
F0F0
F8F0
FFF0
7FE0
3FC0
1F80
0F00
0F00
0F00
0F00
0F00
0F00
0000
0000
0F00
0F80
0F80
0F00
0200
ENDCHAR
STARTCHAR 1EF5
ENCODING 7925
SWIDTH 520 0
DWIDTH 13 0
BBX 12 19 1 -7
BITMAP
F1E0
F1E0
F1E0
F1E0
F1E0
F1E0
F1E0
F1E0
FBE0
7FE0
7FC0
1F80
0F00
0F00
0FE0
0FF0
0FF0
01F0
0040
ENDCHAR
STARTCHAR 1EF6
ENCODING 7926
SWIDTH 560 0
DWIDTH 14 0
BBX 12 24 1 0
BITMAP
0700
0F00
0180
0700
0600
0600
0000
F0F0
F0F0
F0F0
F0F0
F0F0
F0F0
F8F0
FFF0
7FE0
3FC0
1F80
0F00
0F00
0F00
0F00
0F00
0F00
ENDCHAR
STARTCHAR 1EF7
ENCODING 7927
SWIDTH 520 0
DWIDTH 13 0
BBX 11 24 1 -5
BITMAP
0E00
1B00
0100
0700
0400
0000
0000
F1E0
F1E0
F1E0
F1E0
F1E0
F1E0
F1E0
F1E0
FBE0
7FE0
7FC0
1F80
0F00
0F00
0F00
0F00
0F00
ENDCHAR
STARTCHAR 1EF8
ENCODING 7928
SWIDTH 560 0
DWIDTH 14 0
BBX 12 23 1 0
BITMAP
08C0
1F80
3780
0000
0000
0000
F0F0
F0F0
F0F0
F0F0
F0F0
F0F0
F8F0
FFF0
7FE0
3FC0
1F80
0F00
0F00
0F00
0F00
0F00
0F00
ENDCHAR
STARTCHAR 1EF9
ENCODING 7929
SWIDTH 520 0
DWIDTH 13 0
BBX 11 23 1 -5
BITMAP
00C0
1F80
3F80
2000
0000
0000
F1E0
F1E0
F1E0
F1E0
F1E0
F1E0
F1E0
F1E0
FBE0
7FE0
7FC0
1F80
0F00
0F00
0F00
0F00
0F00
ENDCHAR
STARTCHAR 2010
ENCODING 8208
SWIDTH 320 0
DWIDTH 8 0
BBX 6 3 1 5
BITMAP
FC
FC
FC
ENDCHAR
STARTCHAR 2013
ENCODING 8211
SWIDTH 480 0
DWIDTH 12 0
BBX 13 3 0 5
BITMAP
FFF8
FFF8
FFF8
ENDCHAR
STARTCHAR 2014
ENCODING 8212
SWIDTH 1000 0
DWIDTH 25 0
BBX 25 3 0 5
BITMAP
FFFFFF80
FFFFFF80
FFFFFF80
ENDCHAR
STARTCHAR 2018
ENCODING 8216
SWIDTH 280 0
DWIDTH 7 0
BBX 3 5 2 12
BITMAP
60
E0
E0
E0
E0
ENDCHAR
STARTCHAR 2019
ENCODING 8217
SWIDTH 280 0
DWIDTH 7 0
BBX 4 5 2 12
BITMAP
F0
E0
E0
E0
E0
ENDCHAR
STARTCHAR 201A
ENCODING 8218
SWIDTH 280 0
DWIDTH 7 0
BBX 3 6 2 -3
BITMAP
E0
E0
E0
E0
E0
C0
ENDCHAR
STARTCHAR 201C
ENCODING 8220
SWIDTH 480 0
DWIDTH 12 0
BBX 9 5 2 12
BITMAP
6380
E300
E700
E700
E700
ENDCHAR
STARTCHAR 201D
ENCODING 8221
SWIDTH 480 0
DWIDTH 12 0
BBX 9 5 2 12
BITMAP
F780
E700
E700
E700
E700
ENDCHAR
STARTCHAR 201E
ENCODING 8222
SWIDTH 480 0
DWIDTH 12 0
BBX 9 6 2 -3
BITMAP
E780
E700
E700
E700
E700
C600
ENDCHAR
STARTCHAR 2020
ENCODING 8224
SWIDTH 480 0
DWIDTH 12 0
BBX 11 18 1 -1
BITMAP
1E00
1E00
1E00
FFE0
FFE0
FFE0
FFE0
1E00
1E00
1E00
1E00
1E00
1E00
1E00
1E00
1E00
1E00
1E00
ENDCHAR
STARTCHAR 2021
ENCODING 8225
SWIDTH 480 0
DWIDTH 12 0
BBX 11 18 1 -1
BITMAP
1E00
1E00
1E00
FFE0
FFE0
FFE0
FFE0
1E00
1E00
1E00
FFE0
FFE0
FFE0
1E00
1E00
1E00
1E00
1E00
ENDCHAR
STARTCHAR 2022
ENCODING 8226
SWIDTH 560 0
DWIDTH 14 0
BBX 7 7 4 6
BITMAP
38
FC
FE
FE
FE
FC
7C
ENDCHAR
STARTCHAR 2026
ENCODING 8230
SWIDTH 1000 0
DWIDTH 25 0
BBX 21 5 2 0
BITMAP
602030
F0F878
F8F8F8
F8F8F8
F07078
ENDCHAR
STARTCHAR 2030
ENCODING 8240
SWIDTH 1240 0
DWIDTH 31 0
BBX 30 17 1 0
BITMAP
3E070000
7F060000
E78E0000
E38C0000
E39C0000
E7B80000
7F300000
7E700000
08E7C1E0
00CFE3F8
01DFF7F8
019C771C
039C771C
071C771C
061FF7F8
0E0FE3F8
1C07C1E0
ENDCHAR
STARTCHAR 2039
ENCODING 8249
SWIDTH 320 0
DWIDTH 8 0
BBX 5 8 2 2
BITMAP
38
70
E0
E0
E0
70
30
38
ENDCHAR
STARTCHAR 203A
ENCODING 8250
SWIDTH 320 0
DWIDTH 8 0
BBX 6 8 1 2
BITMAP
70
70
38
1C
1C
38
70
E0
ENDCHAR
STARTCHAR 2044
ENCODING 8260
SWIDTH 160 0
DWIDTH 4 0
BBX 12 17 -4 0
BITMAP
0070
0060
00E0
00C0
0180
0380
0300
0700
0600
0E00
0C00
1800
3800
3000
7000
6000
E000
ENDCHAR
STARTCHAR 20A3
ENCODING 8355
SWIDTH 800 0
DWIDTH 20 0
BBX 20 17 1 0
BITMAP
3F8000
7F8000
7F8000
FF8000
F80000
F80EF0
F80FF0
FF8FF0
FF8FC0
FF8F00
FF8F00
F80E00
F80E00
F80E00
F80E00
F80E00
F80E00
ENDCHAR
STARTCHAR 20AB
ENCODING 8363
SWIDTH 400 0
DWIDTH 10 0
BBX 10 17 0 1
BITMAP
01C0
07C0
07C0
01C0
1DC0
7DC0
7DC0
71C0
E1C0
71C0
7F80
7F80
3F00
0000
0000
3F80
3F80
ENDCHAR
STARTCHAR 2122
ENCODING 8482
SWIDTH 800 0
DWIDTH 20 0
BBX 16 7 2 11
BITMAP
FCE7
FCE7
30EF
30FF
30DB
30DB
30D3
ENDCHAR
STARTCHAR 2126
ENCODING 8486
SWIDTH 800 0
DWIDTH 20 0
BBX 19 18 1 0
BITMAP
07F800
1FFE00
3FFF00
7FFF80
7C0F80
7C0F80
F807C0
F807C0
F807C0
F807C0
780780
7C0F80
3C0F00
1E1E00
FE1FE0
FE1FE0
FE1FE0
FE1FE0
ENDCHAR
STARTCHAR 2202
ENCODING 8706
SWIDTH 520 0
DWIDTH 13 0
BBX 12 17 1 0
BITMAP
0700
1FC0
3E40
1860
0060
0070
0070
3E70
71F0
F1F0
E0F0
E1E0
E1E0
E1E0
E1C0
6380
3F00
ENDCHAR
STARTCHAR 2206
ENCODING 8710
SWIDTH 680 0
DWIDTH 17 0
BBX 18 18 0 0
BITMAP
03F000
03F000
03F000
07F800
07F800
07F800
0F7C00
0F3C00
1F3C00
1E3E00
1E1E00
3E1F00
3C1F00
3C0F00
7C0F80
7FFF80
7FFF80
FFFFC0
ENDCHAR
STARTCHAR 220F
ENCODING 8719
SWIDTH 800 0
DWIDTH 20 0
BBX 16 23 2 -5
BITMAP
FFFF
FFFF
FFFF
FFFF
F81F
F81F
F81F
F81F
F81F
F81F
F81F
F81F
F81F
F81F
F81F
F81F
F81F
F81F
F81F
F81F
F81F
F81F
F81F
ENDCHAR
STARTCHAR 2211
ENCODING 8721
SWIDTH 720 0
DWIDTH 18 0
BBX 17 23 1 -5
BITMAP
FFFF00
FFFF00
FFFF00
FFFF00
7E0000
3F0000
1F8000
0FC000
07E000
03F000
01F800
00F800
01F000
03E000
07C000
0F8000
1F0000
3E0000
7E0000
7FFF80
FFFF80
FFFF80
FFFF80
ENDCHAR
STARTCHAR 2212
ENCODING 8722
SWIDTH 800 0
DWIDTH 20 0
BBX 15 3 3 6
BITMAP
FFFE
FFFE
FFFE
ENDCHAR
STARTCHAR 2219
ENCODING 8729
SWIDTH 280 0
DWIDTH 7 0
BBX 5 5 1 6
BITMAP
78
F8
F8
F8
20
ENDCHAR
STARTCHAR 221A
ENCODING 8730
SWIDTH 640 0
DWIDTH 16 0
BBX 16 22 1 -1
BITMAP
0007
0007
000C
000C
001C
0018
0018
0038
0030
3830
F860
B860
1CE0
1CC0
1CC0
0FC0
0F80
0F80
0700
0700
0300
0200
ENDCHAR
STARTCHAR 221E
ENCODING 8734
SWIDTH 800 0
DWIDTH 20 0
BBX 16 11 2 2
BITMAP
1808
3E3E
7F7F
67F7
C1E1
C1C1
C3C1
67E3
7F7F
3E3E
0C1C
ENDCHAR
STARTCHAR 222B
ENCODING 8747
SWIDTH 600 0
DWIDTH 15 0
BBX 14 24 1 -5
BITMAP
0078
01F8
01BC
0398
0380
0380
0780
0700
0700
0700
0700
0700
0700
0700
0700
0700
0700
0700
0700
4E00
EE00
EC00
F800
2000
ENDCHAR
STARTCHAR 2248
ENCODING 8776
SWIDTH 800 0
DWIDTH 20 0
BBX 17 11 2 2
BITMAP
000080
3F8180
FFFF80
FFFF80
C07E00
000000
3F0180
FFFF80
FFFF80
C0FE00
800000
ENDCHAR
STARTCHAR 2260
ENCODING 8800
SWIDTH 800 0
DWIDTH 20 0
BBX 15 15 3 0
BITMAP
0018
003C
0078
FFFE
FFFE
FFFE
03C0
0380
0700
FFFE
FFFE
FFFE
3800
7800
3000
ENDCHAR
STARTCHAR 2264
ENCODING 8804
SWIDTH 800 0
DWIDTH 20 0
BBX 15 15 3 0
BITMAP
000E
007E
03FE
1FF0
FF00
F800
FF80
1FF0
03FE
007E
000E
0000
FFFE
FFFE
FFFE
ENDCHAR
STARTCHAR 2265
ENCODING 8805
SWIDTH 800 0
DWIDTH 20 0
BBX 15 15 3 0
BITMAP
E000
FC00
FF80
1FF0
03FE
003E
03FE
1FF0
FF80
FC00
E000
0000
FFFE
FFFE
FFFE
ENDCHAR
STARTCHAR 22F2
ENCODING 8946
SWIDTH 800 0
DWIDTH 20 0
BBX 17 11 2 2
BITMAP
000080
3F8180
FFFF80
FFFF80
C07E00
000000
3F0180
FFFF80
FFFF80
C0FE00
800000
ENDCHAR
STARTCHAR 255F
ENCODING 9567
SWIDTH 600 0
DWIDTH 15 0
BBX 13 18 1 0
BITMAP
0780
1FE0
3FF0
7FF8
7FF8
F878
F878
F7F8
F7F8
F7F8
F7F8
F7F8
F078
F078
F078
F078
F078
F078
ENDCHAR
STARTCHAR 2560
ENCODING 9568
SWIDTH 520 0
DWIDTH 13 0
BBX 11 17 1 0
BITMAP
07E0
1FE0
3FE0
7FC0
FC00
F800
FFE0
FFE0
FFE0
FFE0
F800
F800
7E00
7FE0
3FE0
0FE0
03E0
ENDCHAR
STARTCHAR 2561
ENCODING 9569
SWIDTH 280 0
DWIDTH 7 0
BBX 5 17 1 0
BITMAP
F8
F8
F8
F8
F8
F8
F8
F8
F8
F8
F8
F8
F8
F8
F8
F8
F8
ENDCHAR
STARTCHAR 2562
ENCODING 9570
SWIDTH 760 0
DWIDTH 19 0
BBX 18 18 1 0
BITMAP
03E000
0FF800
1FFE00
3FFF00
7FFF00
FC1F80
F80F80
F00780
F007C0
F007C0
F007C0
F80780
F80F80
7E1F80
7FFF00
3FFE00
1FFC00
07F000
ENDCHAR
STARTCHAR 2563
ENCODING 9571
SWIDTH 600 0
DWIDTH 15 0
BBX 13 17 1 0
BITMAP
F078
F078
F078
F078
F078
F078
F078
F078
F078
F078
F078
F878
F8F8
7FF8
7FF0
3FE0
1FC0
ENDCHAR
STARTCHAR 2564
ENCODING 9572
SWIDTH 560 0
DWIDTH 14 0
BBX 12 17 1 0
BITMAP
F0F0
F0F0
F0F0
F0F0
F0F0
F0F0
F8F0
FFF0
7FE0
3FC0
1F80
0F00
0F00
0F00
0F00
0F00
0F00
ENDCHAR
STARTCHAR 2565
ENCODING 9573
SWIDTH 560 0
DWIDTH 14 0
BBX 12 13 1 0
BITMAP
0E00
3F80
7FE0
FFE0
F9F0
F0F0
F0F0
F0F0
F0F0
FFF0
7FF0
7FF0
1FF0
ENDCHAR
STARTCHAR 2566
ENCODING 9574
SWIDTH 520 0
DWIDTH 13 0
BBX 13 13 1 0
BITMAP
0600
3F80
7FE0
FFE0
F1E0
E7C0
EF00
F660
F078
FFF0
7FE0
3FC0
1F80
ENDCHAR
STARTCHAR 2567
ENCODING 9575
SWIDTH 240 0
DWIDTH 6 0
BBX 4 18 1 0
BITMAP
70
F0
F0
F0
00
00
F0
F0
F0
F0
F0
F0
F0
F0
F0
F0
F0
F0
ENDCHAR
STARTCHAR 2568
ENCODING 9576
SWIDTH 240 0
DWIDTH 6 0
BBX 4 12 1 0
BITMAP
F0
F0
F0
F0
F0
F0
F0
F0
F0
F0
F0
F0
ENDCHAR
STARTCHAR 2569
ENCODING 9577
SWIDTH 520 0
DWIDTH 13 0
BBX 12 13 1 0
BITMAP
0600
3F80
7FE0
FFE0
F9F0
F0F0
F0F0
F0F0
F0F0
FFF0
7FE0
3FC0
1F80
ENDCHAR
STARTCHAR 256A
ENCODING 9578
SWIDTH 520 0
DWIDTH 13 0
BBX 11 12 1 0
BITMAP
F1E0
F1E0
F1E0
F1E0
F1E0
F1E0
F1E0
F1E0
FFE0
7FE0
3FC0
1F80
ENDCHAR
STARTCHAR 256B
ENCODING 9579
SWIDTH 520 0
DWIDTH 13 0
BBX 11 17 1 -5
BITMAP
F1E0
F1E0
F1E0
F1E0
F1E0
F1E0
F1E0
F1E0
FBE0
7FE0
7FC0
1F80
0F00
0F00
0F00
0F00
0F00
ENDCHAR
STARTCHAR 25CA
ENCODING 9674
SWIDTH 480 0
DWIDTH 12 0
BBX 12 25 0 -6
BITMAP
0400
0600
0600
0F00
0900
1980
1080
10C0
3040
2060
6020
4030
C010
C010
4020
6020
2060
3040
10C0
1880
0980
0D00
0700
0600
0200
ENDCHAR
STARTCHAR 25CB
ENCODING 9675
SWIDTH 600 0
DWIDTH 15 0
BBX 8 10 4 18
BITMAP
1C
38
30
60
40
3C
3C
6E
66
C3
ENDCHAR
STARTCHAR 25CF
ENCODING 9679
SWIDTH 600 0
DWIDTH 15 0
BBX 8 10 4 18
BITMAP
38
18
0C
0C
06
3C
3C
6E
66
C3
ENDCHAR
STARTCHAR 25D8
ENCODING 9688
SWIDTH 600 0
DWIDTH 15 0
BBX 10 10 4 18
BITMAP
0380
07C0
00C0
0380
0300
3C00
3C00
6E00
6600
C300
ENDCHAR
STARTCHAR 25D9
ENCODING 9689
SWIDTH 600 0
DWIDTH 15 0
BBX 8 9 4 18
BITMAP
31
7F
4E
00
3C
3C
6E
66
C3
ENDCHAR
STARTCHAR F000
ENCODING 61440
SWIDTH 760 0
DWIDTH 19 0
BBX 17 20 1 0
BITMAP
000800
001800
003800
007000
006000
1F3E00
3FFF80
7FFF00
7FFE00
FFFE00
FFFE00
FFFE00
FFFE00
7FFE00
7FFF00
7FFF80
3FFF80
3FFF00
1FFF00
0FFE00
ENDCHAR
STARTCHAR F001
ENCODING 61441
SWIDTH 560 0
DWIDTH 14 0
BBX 12 18 1 0
BITMAP
0060
3EF0
7EF0
FEF0
F040
F000
FEF0
FEF0
FEF0
F0F0
F0F0
F0F0
F0F0
F0F0
F0F0
F0F0
F0F0
F0F0
ENDCHAR
STARTCHAR F002
ENCODING 61442
SWIDTH 560 0
DWIDTH 14 0
BBX 12 17 1 0
BITMAP
3EF0
7EF0
FEF0
F0F0
F0F0
FEF0
FEF0
FEF0
F0F0
F0F0
F0F0
F0F0
F0F0
F0F0
F0F0
F0F0
F0F0
ENDCHAR
ENDFONT
